<svg xmlns="http://www.w3.org/2000/svg" fill="none" viewBox="0 0 206 84">
  <defs>
    <linearGradient id="a" x1="92" x2="178" y1="85" y2="-89" gradientUnits="userSpaceOnUse">
      <stop stop-color="#7e5624"/>
      <stop offset="1" stop-color="#c79551"/>
    </linearGradient>
    <path id="outline" stroke="url(#a)" stroke-width="4" d="M124.06 8.13c-23.932-.054-49.564 3.708-70.055 9.287a163 163 0 0 0-6.97 2.062c-.512 10.378-9.82 10.154-11.68 10.44 3.995 17.17-12.155 18.719-16.875 15 .639 8.904-6.35 9.646-10.327 8.453-.074 4.703 1.48 8.385 2.651 10.106 10.373 15.234 38.05 9.441 71.524 3.433 17.97-3.225 49.37 6.565 74.92 8.502 3.271-6.021 10.632-14.492 24.064-6.393 0 0 .79-9.993 11.173-8.08 0 0-3.336-7.19 5.43-13.303-.25-29.144-34.776-39.42-73.855-39.508Z" vector-effect="non-scaling-stroke" />
    <clipPath id="clipPath">
      <use href="#outline"/>
    </clipPath>
  </defs>
  <path fill="#f4f2e5" d="M120.567.003c-4.051.18-8.113.29-12.162.554-12.697.728-25.341 2.341-37.827 4.757-8.824 1.736-17.576 3.882-26.158 6.575-2.591.967-4.796 3.212-5.25 6.002-.243 1.036-.159 2.22-.806 3.112-1.144.896-2.697.577-4.026.926-2.564.442-5.05 1.972-6.137 4.406-1.12 2.26-1.07 4.921-.416 7.307.135 1.315.265 3.026-.85 4.042-1.486 1.174-3.662.913-5.162-.095-2.948-1.478-6.74-.673-8.981 1.701-1.63 1.646-2.592 3.977-2.445 6.302-1.553-.27-3.21-.521-4.71.126C1.932 46.95-.53 51.046.098 54.896c.215 7.763 4.113 15.462 10.596 19.838 5.613 3.99 12.503 5.757 19.294 6.264 10.382.814 20.757-.658 31.006-2.174 8.714-1.36 17.357-3.14 26.098-4.282 6.639-.516 13.218.44 19.79 1.324 16.794 2.386 33.389 6.405 50.357 7.562 3.129.1 6.013-1.952 7.438-4.658 1.195-2.023 2.741-4.143 5.129-4.785 2.325-.605 4.634.538 6.63 1.573 1.701.903 3.579 1.71 5.551 1.476 3.361-.247 6.27-2.852 7.189-6.047.253-.678.288-1.435.482-2.108.582-.237 1.228.11 1.841.057 2.396.154 4.999-.455 6.651-2.307 2.206-2.294 2.981-5.872 1.868-8.862-.008-1.59 1.367-2.675 2.547-3.51 2.357-1.898 3.759-5.001 3.371-8.032-.228-10.588-5.232-20.905-13.23-27.813-6.767-5.946-15.111-9.792-23.647-12.465C157.706 2.421 145.827.913 133.986.328c-4.383-.21-8.807-.259-13.171-.31a1 1 0 0 0-.248-.015"/>
  <g clip-path="url(#clipPath)">
    <use x="-80" y="-30" href="#halftone" transform="scale(3)"/>
  </g>
  <use href="#outline" />
</svg>
