<svg xmlns="http://www.w3.org/2000/svg" fill="none" viewBox="0 0 206 84">
  <defs>
    <linearGradient id="a" x1="92" x2="178" y1="85" y2="-89" gradientUnits="userSpaceOnUse">
      <stop stop-color="#7e5624"/>
      <stop offset="1" stop-color="#c79551"/>
    </linearGradient>
    <path id="outline" stroke="url(#a)" stroke-width="4" d="M10.73 63.433C6.97 57.913-.718 32.237 53.946 17.355S199.838.511 197.904 49.409c-2.003 50.658-82.139 11.448-115.624 17.458s-61.174 11.806-71.55-3.434Z" vector-effect="non-scaling-stroke" />
    <clipPath id="clipPath">
      <use href="#outline"/>
    </clipPath>
  </defs>
  <path fill="#f4f2e5" d="M120.598.009C94.99.484 69.382 4.169 44.866 11.65c-10.204 3.248-20.239 7.502-28.864 13.941C10.115 30.017 4.963 35.707 2.177 42.6c-2.994 7.364-3.014 16.069.653 23.203 3.182 6.204 9.107 10.724 15.663 12.886 7.148 2.468 14.831 2.74 22.32 2.374 11.944-.645 23.72-2.877 35.488-4.9 3.96-.68 7.927-1.371 11.929-1.751 4.438-.235 8.908.214 13.336.725 19.057 2.278 37.777 7.169 56.976 8.4 8.163.48 16.509.299 24.401-2.049 6.127-1.842 11.919-5.263 15.895-10.35 3.571-4.44 5.647-9.925 6.529-15.519 1.158-6.893.756-14.093-1.443-20.744-2.545-7.458-7.518-14.002-13.845-18.667-7.455-5.677-16.326-9.161-25.319-11.562C151.75 1.233 138.247.156 124.833.01a248 248 0 0 0-4.235 0"/>
  <g clip-path="url(#clipPath)">
    <use x="-80" y="-30" href="#halftone" transform="scale(3)"/>
  </g>
  <use href="#outline" />
</svg>
