<svg xmlns="http://www.w3.org/2000/svg" fill="none" viewBox="0 0 239 287">
  <defs>
    <linearGradient id="a" x1="147.799" x2="121.053" y1="256.071" y2="187.84" gradientUnits="userSpaceOnUse">
      <stop stop-color="#c39049"/>
      <stop offset="1" stop-color="#c3904900"/>
    </linearGradient>
    <linearGradient id="b" x1="183.144" x2="175.962" y1="64.254" y2="40.255" gradientUnits="userSpaceOnUse">
      <stop stop-color="#c6934e"/>
      <stop offset="1" stop-color="#c6934e00"/>
    </linearGradient>
    <linearGradient id="c" x1="213.117" x2="204.041" y1="104.501" y2="85.321" gradientUnits="userSpaceOnUse"/>
  </defs>
  <path fill="#f4f2e5" d="M174.15.013c-6.435.452-12.429 4.135-16.472 8.812-1.904 1.987-3 4.617-5.223 6.305-6.405 6.01-14.22 11.047-18.252 19.122-1.517 3.251-2.24 6.836-2.291 10.214-.14 6.94 2.341 13.663 6.578 19.158 1.708 2.443 3.431 4.876 5.144 7.317-6.435-.756-13.379-.195-19.201-3.525-12.731-5.563-22.363-1.548-35.199 1.909-11.028.95-22.407 3.656-32.043 9.612-8.558 5.849-17.307 11.461-25.455 17.888-11.12 8.664-20.666 19.731-26.046 32.869-6.837 13.932-5.247 25.16-5.148 41.235-1.53 15.178.024 31.046 6.629 45.047 2.935 6.382 7.004 12.158 11.477 17.545 6.405 8.334 10.04 18.68 17.791 25.984 4.948 4.521 10.741 8.008 16.557 11.287 7.185 3.96 14.811 6.739 22.645 9.166 6.4 2.033 12.765 4.269 19.32 5.747 8.038 1.383 16.141.648 24.072-.51 12.226-1.698 24.538-3.651 36.367-7.405 11.703-4.325 21.766-11.935 31.638-19.375 5.295-4.326 9.16-10.089 11.794-16.288 2.856-6.734 7.797-12.339 10.057-19.363 2.959-9.977 4.978-20.404 9.896-29.706 1.661-3.832 2.814-7.918 3.244-11.85.588-4.616-.072-9.293-1.521-13.691-2.786-10.138-6.436-20.02-9.45-30.155-1.558-4.517-3.44-8.912-5.239-13.337 8.194-.537 16.767-3.329 22.2-9.785 4.28-5.592 6.377-12.465 8.581-19.062 2.171-6.755 3.751-14.406.715-21.16-2.684-6.026-7.49-10.93-12.88-14.617-3.595-2.34-7.749-3.737-11.982-4.264-2.027-.698-1.913-3.137-1.662-4.866.399-7.225-2.551-14.072-5.845-20.328-3.067-7.074-4.556-15.184-10.177-20.848-5.232-5.662-12.83-9.344-20.619-9.082"/>
  <path fill="#deb47b" d="M47.136 105.312s19.125-15 28.5-17.625 52.875-7.5 69.75 3 43.875 28.125 50.625 51.375c6.751 23.25 11.251 32.25 10.501 37.5s-4.875 12-7.875 20.625-3.75 18.751-7.875 24c-4.125 5.25-6.376 11.25-9 16.875-2.625 5.625-24.376 19.126-30.751 21.751s-37.875 8.25-48.375 7.875-21.375-6.75-28.5-7.875-28.125-13.5-30.75-19.126c-2.625-5.625-11.626-20.624-15.375-24-3.75-3.375-13.875-20.625-12-43.125s.375-33.375 4.875-42.75 16.125-23.25 26.25-28.5"/>
  <path fill="#dbb177" d="M110.362 84.24c-15.134.021-29.745 2.052-34.726 3.446-9.375 2.625-28.5 17.625-28.5 17.625-10.125 5.25-21.75 19.125-26.25 28.5s-3 20.251-4.875 42.751 8.25 39.75 12 43.125 12.75 18.375 15.375 24 23.625 18 30.75 19.125 18 7.5 28.5 7.875 42-5.25 48.375-7.875 28.126-16.125 30.751-21.75 4.875-11.625 9-16.875 4.875-15.375 7.875-24 7.125-15.375 7.875-20.625-3.75-14.251-10.5-37.5c-6.75-23.251-33.751-40.876-50.626-51.376-7.91-4.922-21.671-6.466-35.024-6.447m-26.123 26.545c3.548.04 6.754.846 9.29 2.785 9.016 6.895 18.033 26.517 17.502 35.533-.53 9.016.531 21.743-14.319 28.638-14.85 6.894-31.82 16.44-37.654 14.849-8.837-7.009-18.978-26.655-18.562-35.531 1.06-11.137 4.243-32.351 15.38-37.654 8.005-3.812 19.297-8.72 28.363-8.62"/>
  <path fill="#d7ab6f" d="M110.362 84.24c-15.134.021-29.745 2.052-34.726 3.446-9.375 2.625-28.5 17.625-28.5 17.625-10.125 5.25-21.75 19.125-26.25 28.5s-3 20.251-4.875 42.751 8.25 39.75 12 43.125 12.75 18.375 15.375 24 23.625 18 30.75 19.125 18 7.5 28.5 7.875 42-5.25 48.375-7.875 28.126-16.125 30.751-21.75 4.875-11.625 9-16.875 4.875-15.375 7.875-24 7.125-15.375 7.875-20.625-3.75-14.251-10.5-37.5c-6.75-23.251-33.751-40.876-50.626-51.376-7.91-4.922-21.671-6.466-35.024-6.447M83.961 99.337c11.563.037 27.384 3.908 36.085 6.808 11.137 3.713 15.911 31.82 20.684 40.306s-6.894 38.714-16.44 53.563-61.52 17.501-61.52 17.501-21.212-9.015-24.394-13.788-9.547-20.153-10.077-36.063 9.016-31.289 13.789-38.184 22.804-25.986 33.41-29.168c2.32-.696 5.225-.986 8.463-.975"/>
  <path fill="url(#a)" d="M138.841 87.74c6.468 10.017 17.188 27.595 19.389 37.498 3.182 14.319 9.546 44.018 2.651 62.05s-31.819 39.774-47.729 43.487c-15.91 3.712-49.322 7.425-60.459-1.061-11.137-8.485-29.698-25.987-31.29-36.063-.688-4.366-2.975-11.289-5.34-17.769-.019.232-.033.446-.052.68-1.875 22.5 8.25 39.75 12 43.125s12.75 18.375 15.375 24c2.625 5.626 23.625 18 30.75 19.126 7.125 1.125 18 7.5 28.5 7.875s42-5.251 48.375-7.875c6.375-2.626 28.126-16.126 30.751-21.751s4.875-11.625 9-16.875c4.125-5.249 4.875-15.375 7.875-24s7.125-15.375 7.875-20.625-3.75-14.25-10.5-37.5-33.751-40.875-50.626-51.376c-1.875-1.167-4.095-2.134-6.545-2.945"/>
  <path fill="#59370d" d="M94.576 99.311s-8.625-6.75-.375-11.25 10.688-4.687 14.813-6 7.125-2.062 9.374.187c2.251 2.25 7.688 9.938 7.126 13.875-.563 3.938-4.126 10.5-7.501 10.5s-18.375-2.812-23.437-7.312m84.188 52.687s-4.125-6.937-6.938-7.124-5.062-.187-4.687-4.875 2.062-6.751 3.937-7.688c1.875-.938 1.313-3 3.938-4.688s5.062-3.187 7.875-2.437 8.25 3.187 10.312 12.937c2.063 9.751 1.876 14.251-1.5 16.5-3.375 2.251-11.25 1.125-12.937-2.625m-43.88-36.561c-1.688-1.126-3-4.501-1.125-5.813 1.875-1.313 4.312-2.25 4.688-.563s.186 5.813-3.563 6.376m1.503 17.624c4.313-1.125 7.875-2.25 9.188.938 1.312 3.187 3.75 9.375.187 11.25s-9.563 1.5-10.5-.187c-.938-1.688-3.563-3.938-1.688-7.5 1.875-3.563 2.813-4.501 2.813-4.501m-1.501 23.813s5.625-3.188 10.125-.563 6.563 1.312 8.438 4.5c1.874 3.187 3.75 7.5 2.625 11.25s-1.313 6.375-4.125 6.75-10.875-1.875-11.813-5.437-2.625-6.75-4.312-8.25-3.75-5.438-.938-8.25m57.38 24.562c-.75-2.062-1.313-5.25.375-5.812s4.125-.938 4.125 1.125 0 6.187-4.5 4.687M126.826 206s5.251-5.626 6.188-.376c.938 5.251.562 8.063-2.25 8.063s-5.25-.187-5.062-2.25c.187-2.062 1.124-5.437 1.124-5.437m49.31.374c1.875-3.188 2.625-5.625 5.438-6s6.374-.375 7.499 2.062c1.126 2.438 3.188 5.063 2.438 9.563s-.375 9.375-4.313 12.937c-3.937 3.563-4.875 5.25-10.124 4.313-5.251-.938-8.813-2.25-8.063-6.188s3.563-7.125 4.687-9.187c1.125-2.063 2.438-7.5 2.438-7.5M151.387 246.5s.563-7.313 4.313-7.875 6.187-1.313 6.375.937 0 5.25.562 6.375 2.25 2.063 1.875 4.125c-.375 2.063-.75 4.688-2.812 5.625-2.063.938-4.313 2.437-6 2.437s-4.5-1.499-4.875-3.937.562-7.687.562-7.687m-40.694-9.464s10.875-3 13.5-5.438 4.312-3.562 6.75-2.812 4.875 1.875 5.437 4.687.75 9.938 0 13.5c-.75 3.563-2.062 12.001-3.937 13.688s-5.063 2.625-7.687 2.813c-2.626.187-7.313 1.499-9.188 1.499s-7.125-1.124-8.063-2.999c-.937-1.876-3.937-8.626-3.375-10.501.563-1.875 1.688-5.062 2.626-6.75s.186-6.75 3.937-7.687m-35.056-69.287c1.313-2.437 3.188-3.375 6-3.562 2.813-.187 4.875.187 5.25 1.312s.563 2.813 2.25 3.375c1.688.563 7.125 1.688 9.376 1.688 2.249 0 6.937.562 8.062 2.437s2.812 4.125 1.875 7.313c-.938 3.187-2.813 9.938-4.688 10.875s-4.875 0-6.187 1.875-2.813 4.687-5.063 5.812-6.937 2.813-8.812 2.063-11.813-7.125-13.876-9.938c-9.302-13.637-.733-16.754 5.813-23.25m-27.189 58.687s7.125-6.75 10.312-6.937c3.188-.188 6.75 2.437 8.063 8.25 1.312 5.812 3.375 9.562 3.75 12.187s2.813 5.625-.937 8.813c-3.75 3.187-6.938 4.5-10.5 2.625s-6.188-5.813-9.563-7.125-6.563-7.313-6-10.125.187-4.313 4.875-7.688m12.935-70.5s-1.313-4.312-1.313-5.813c0-1.499 1.875-4.125 3.563-4.125 1.687 0 7.687-.375 7.875 1.5s2.812 5.251.562 8.626-1.5 6.375-5.812 5.625-4.875-5.813-4.875-5.813m-39.936 18s2.813-2.25 2.626-4.687-.75-3.375 1.5-4.501c2.25-1.125 5.25-4.125 7.312-2.249 2.062 1.874 3.562 5.624 3.75 9.187.187 3.563.937 8.625-.187 11.25-1.126 2.625-2.813 4.875-4.875 5.25-2.063.375-8.438 0-9.938-2.25s-5.25-6.75-.188-12m42.001-56.062s-.562 3.75-4.5 3.187c-3.937-.562-5.437-3.187-5.062-5.625.375-2.437.187-5.625 1.875-7.312s4.875-3.938 7.687-2.251 4.875 2.251 3.375 5.626c-1.5 3.374-3.375 6.375-3.375 6.375m-42.749 43.875s-3 2.812-5.438 1.125c-2.437-1.688-3.75-3.375-2.812-4.688.937-1.312 1.5-4.312 1.875-6.75s3.375-5.063 5.625-3.937 4.875 1.687 4.312 6-3.562 8.25-3.562 8.25"/>
  <path fill="#4d2e08" d="M83.134 164.142c-.468-.008-.97.01-1.497.045-2.812.187-4.687 1.125-6 3.562-6.547 6.495-15.115 9.613-5.812 23.25 2.062 2.813 12 9.188 13.875 9.938s6.562-.938 8.812-2.063 3.75-3.937 5.063-5.812 4.312-.938 6.187-1.875 3.75-7.688 4.688-10.875-.75-5.438-1.875-7.313-5.813-2.437-8.063-2.437-7.687-1.125-9.375-1.688-1.875-2.25-2.25-3.375c-.305-.914-1.723-1.333-3.753-1.357m-1.681 3.155c1.578 0 3.107.3 3.79 1.164.995 1.26 2.32 1.325 3.58 2.187s4.443 2.321 3.25 4.707c-1.194 2.387-5.238 8.619-11.006 7.69s-9.28.861-10.605-5.834c0 0-.2-1.988 3.447-4.773 3.645-2.784 3.314-4.639 5.436-4.971.662-.104 1.39-.169 2.108-.17"/>
  <path fill="#331e04" d="M100.145 170.641c.497 1.759 2.128 8.316-.133 11.546-2.625 3.75-5.625 5.25-7.875 7.5s-6.75 4.875-12.375 2.25-10.519-5.476-12.375-12.281c-.416-1.524.689-4.611.637-4.771-2.94 3.596-3.744 7.987 1.8 16.114 2.063 2.813 12 9.188 13.875 9.938s6.563-.938 8.813-2.063 3.75-3.937 5.062-5.812 4.313-.938 6.188-1.875 3.75-7.688 4.687-10.875-.749-5.438-1.875-7.313c-.895-1.492-4.045-2.151-6.429-2.358"/>
  <path fill="#4d2e08" d="M140.883 155.275c-3.215.023-5.997 1.599-5.997 1.599-2.812 2.813-.75 6.75.938 8.25s3.375 4.688 4.312 8.25 9 5.813 11.813 5.438c2.812-.375 3-3 4.125-6.75s-.75-8.063-2.625-11.25c-1.876-3.188-3.938-1.875-8.438-4.5-1.336-.78-2.77-1.047-4.128-1.037m.098 1.73c1.32.017 2.304.332 3.046 1.557 1.078 1.781 2.671 5.719 1.172 7.687-1.5 1.969-2.578 3.797-4.172 2.719s-2.297-2.109-2.953-3.422c-.657-1.312-1.454-1.968-2.016-2.437 0 0-1.547-1.219-.328-3.469s.844-2.344 3.234-2.531c.747-.059 1.417-.112 2.017-.104"/>
  <path fill="#331e04" d="M147.296 157.426c1.194 1.738 2.911 4.28 3.153 4.885.375.938 1.5 5.25 1.125 6.375s-1.125 3.375-3.375 3.563c-1.822.151-5.977.548-8.389 0q.175.555.326 1.126c.938 3.563 9 5.813 11.813 5.438 2.812-.375 3-3 4.125-6.75s-.75-8.063-2.625-11.25c-1.524-2.591-3.172-2.209-6.153-3.386z"/>
  <path fill="#4d2e08" d="M142.253 131.911c-1.619-.011-3.643.57-5.866 1.15 0 0-.938.938-2.813 4.5s.75 5.813 1.688 7.5 6.937 2.063 10.5.188 1.125-8.063-.188-11.25c-.636-1.544-1.8-2.077-3.321-2.088m-3.725 3.378c.367-.007.697.171 1.008.689.796 1.326 1.724 2.518 1.326 3.977-.398 1.458-.53 2.122-2.386 2.254s-2.254.796-2.917-.266c-.663-1.061-1.988-1.459-.664-3.447 0-.008.268-2.121 1.593-2.518.808-.243 1.468-.683 2.04-.689"/>
  <path fill="#331e04" d="M142.253 131.912c-.552-.008-1.151.063-1.789.173.155.595.306 1.205.422 1.727.375 1.687 1.875 3 2.438 4.875.562 1.875-.75 3-1.313 4.5-.423 1.127-4.553 1.831-6.578 2.11 1.342 1.482 6.938 1.736 10.328-.048 3.563-1.875 1.125-8.063-.187-11.25-.636-1.544-1.8-2.077-3.321-2.087"/>
  <path fill="#4d2e08" d="M137.182 108.152c-.963.028-2.295.682-3.423 1.472-1.875 1.312-.563 4.687 1.125 5.812 3.75-.562 3.937-4.687 3.562-6.375-.149-.672-.626-.928-1.264-.909m-2.339 1.438c.07 0 .145.008.228.034.446.142.61.141.539.726-.07.587.094.797-.468 1.407-.563.609-1.032 1.124-1.477.492 0 0-.492-.703-.305-1.172s.165-.797.61-1.031c.362-.192.569-.444.873-.456"/>
  <path fill="#331e04" d="M137.219 108.152q-.224.001-.472.049c0 .037.008.074.012.11.188 1.312-.375 2.063-.375 3.375 0 .892-1.557 2.043-2.556 2.689.311.436.674.806 1.056 1.061 3.75-.563 3.938-4.688 3.563-6.375-.147-.659-.609-.917-1.228-.909"/>
  <path fill="#4d2e08" d="M181.343 124.988c-2.187.017-4.197 1.264-6.329 2.635-2.626 1.688-2.063 3.751-3.938 4.688s-3.562 3-3.937 7.688 1.875 4.688 4.687 4.875 6.938 7.125 6.938 7.125c1.687 3.75 9.562 4.875 12.937 2.625s3.563-6.75 1.5-16.5c-2.062-9.751-7.5-12.188-10.312-12.938a5.8 5.8 0 0 0-1.546-.198m-2.924 6.988c.899 0 1.707.288 2.618 1.614 1.459 2.121.794 2.254 1.193 5.436.397 3.182.662 4.906-1.061 5.701-1.724.795-4.772 1.458-6.098-.133s-5.701-1.59-5.436-3.314c0 0 1.325-5.568 2.121-6.231.795-.663 3.182-2.784 4.906-2.917.646-.05 1.218-.156 1.757-.156"/>
  <path fill="#331e04" d="M181.342 124.988c-1.109.009-2.173.336-3.23.834.111.073.262.114.463.114 1.875 0 6.375 4.5 7.5 6.188s1.5 9 1.875 11.062c.375 2.063-2.625 5.625-4.125 6.75-.986.74-5.205-.869-7.986-2.059 1.631 1.947 2.924 4.122 2.924 4.122 1.687 3.75 9.562 4.875 12.937 2.625s3.563-6.75 1.5-16.5c-2.062-9.751-7.5-12.188-10.312-12.938a5.8 5.8 0 0 0-1.546-.198"/>
  <path fill="#4d2e08" d="M194.847 175.181c-.719.016-1.529.214-2.215.443-1.687.562-1.125 3.75-.375 5.812 4.5 1.5 4.5-2.625 4.5-4.687 0-1.225-.858-1.591-1.91-1.568m-2.043 1.057c.075-.001.158.036.258.111.397.298.894 1.392.596 1.956-.298.563-.994 1.823-1.458 1.094 0 0-.597-1.193-.133-2.121.348-.696.51-1.039.737-1.04"/>
  <path fill="#331e04" d="M194.852 175.182a4 4 0 0 0-.511.038c.423.736.921 1.788.921 2.654 0 1.5.187 1.688-.562 2.25-.501.376-1.92.249-2.808.123.11.418.236.822.37 1.19 4.5 1.5 4.5-2.625 4.5-4.688 0-1.224-.859-1.591-1.91-1.567"/>
  <path fill="#4d2e08" d="M184.053 200.192a19 19 0 0 0-2.48.182c-2.812.375-3.562 2.812-5.437 6 0 0-1.313 5.437-2.438 7.5-1.124 2.062-3.937 5.25-4.687 9.187-.75 3.938 2.812 5.251 8.062 6.188s6.188-.75 10.125-4.313 3.563-8.437 4.313-12.937-1.313-7.125-2.438-9.563c-.808-1.752-2.876-2.245-5.02-2.244m-5.563 9.825c.841-.023 1.689.385 2.279 2.196.994 3.049 1.127 7.358-.464 9.082s-3.846 5.302-8.221 4.043c0 0-2.121-.266-.927-3.646s2.784-4.906 3.712-6.497.796-4.573 1.989-4.838c.485-.107 1.056-.325 1.632-.34"/>
  <path fill="#331e04" d="M184.053 200.192c-.522 0-1.047.032-1.561.079 1.472 1.266 3.707 3.546 3.956 5.915.375 3.563-1.5 11.438-3.187 14.625-1.688 3.188-6.188 4.875-8.438 5.625-.945.316-2.314.727-3.592 1.102 1.442.785 3.468 1.287 5.842 1.711 5.25.937 6.188-.75 10.125-4.313s3.563-8.437 4.313-12.937-1.313-7.125-2.438-9.563c-.808-1.752-2.876-2.245-5.02-2.244"/>
  <path fill="#4d2e08" d="M131.101 203.385c-1.848.016-4.274 2.614-4.274 2.614s-.938 3.375-1.125 5.438 2.25 2.25 5.062 2.25 3.188-2.813 2.25-8.063c-.3-1.681-1.042-2.247-1.913-2.239m-1.929 1.73c.233-.008.382.179.457.701.133.928-.234 3.248-.697 3.812-.464.563-2.619 1.989-2.486.895 0 0 .398-2.95.862-3.746.465-.795.498-.961 1.161-1.359.29-.174.521-.298.703-.303"/>
  <path fill="#331e04" d="M131.162 203.385a2.4 2.4 0 0 0-.721.101c.641.908 1.268 2.095 1.071 3.076-.375 1.875-.562 3.938-1.687 4.688s-2.25 1.312-3.75 1.312q-.068-.002-.125.008c.685 1.006 2.636 1.119 4.812 1.119 2.813 0 3.188-2.812 2.25-8.062-.293-1.641-1.006-2.22-1.85-2.24z"/>
  <path fill="#4d2e08" d="M160.119 238.037c-1.094 0-2.603.315-4.419.588-3.75.562-4.313 7.874-4.313 7.874s-.937 5.251-.562 7.688c.375 2.438 3.187 3.938 4.875 3.938 1.687 0 3.937-1.5 6-2.438 2.063-.937 2.437-3.562 2.812-5.625.375-2.062-1.312-3-1.875-4.125s-.375-4.125-.562-6.375c-.097-1.16-.791-1.523-1.956-1.525m-5.982 6.472c.706 0 1.484.338 1.969 1.27.861 1.657 2.519 4.84 1.79 6.365-.729 1.524-1.723 4.507-4.839 3.447 0 0-1.657-.796-1.26-4.641.398-3.845.331-5.17.994-5.899.29-.319.797-.537 1.346-.542"/>
  <path fill="#331e04" d="M160.01 238.039c-1.085.028-2.555.322-4.313.586a2.9 2.9 0 0 0-.861.269c1.155.676 1.961.979 3.017 1.419 2.25.938 2.532 2.719 2.157 5.156-.375 2.438 3.281 2.907 0 8.344-.932 1.544-5.395 2.786-6.961 3.444.893.561 1.885.869 2.648.869 1.688 0 3.938-1.5 6-2.438 2.063-.937 2.438-3.562 2.813-5.625.375-2.062-1.313-3-1.876-4.125s-.375-4.125-.562-6.375c-.099-1.195-.833-1.544-2.062-1.524"/>
  <path fill="#4d2e08" d="M129.434 228.557c-1.711.034-3.19 1.137-5.241 3.041-2.625 2.438-13.5 5.438-13.5 5.438-3.751.937-3 6-3.938 7.687-.937 1.688-2.062 4.876-2.625 6.751-.562 1.875 2.437 8.624 3.375 10.499s6.188 3 8.063 3 6.562-1.312 9.187-1.5 5.813-1.125 7.688-2.812c1.875-1.688 3.187-10.125 3.937-13.688.75-3.562.563-10.687 0-13.5-.562-2.812-3-3.937-5.437-4.688a4.8 4.8 0 0 0-1.509-.228m-11.568 9.555c1.811 0 3.209.682 3.327 4.08.187 5.437-3.656 15-6.282 15.938-2.624.937-4.781 2.156-6.093.468 0 0-2.907-3.562-1.219-9.281s.75-6.375 2.344-8.156 1.218-2.532 4.406-2.719c1.195-.071 2.43-.325 3.517-.33"/>
  <path fill="#331e04" d="M129.433 228.557c-1.711.034-3.19 1.137-5.241 3.041a6.6 6.6 0 0 1-.938.696c.751-.028 1.459 0 2.062.054 3.375.375 6.001.562 5.813 3.375-.187 2.812-1.5 13.687-1.875 15.563-.375 1.874-3.75 7.499-5.437 8.437s-7.501 2.437-9.563 2.625c-1.317.119-3.961.284-6.067.411 1.745 1.398 5.784 2.214 7.38 2.214 1.875 0 6.562-1.313 9.187-1.5s5.813-1.125 7.688-2.812c1.875-1.688 3.187-10.125 3.937-13.688.75-3.562.562-10.687 0-13.5-.563-2.812-3-3.937-5.438-4.688a4.8 4.8 0 0 0-1.508-.228"/>
  <path fill="#4d2e08" d="M59.06 219.49c-.1.001-.2.001-.3.01-3.187.187-10.312 6.937-10.312 6.937-4.688 3.375-4.313 4.875-4.875 7.688s2.625 8.812 6 10.125c3.375 1.312 6 5.25 9.562 7.125 3.563 1.875 6.75.562 10.5-2.625s1.313-6.188.938-8.813-2.438-6.375-3.75-12.187c-1.272-5.631-4.654-8.27-7.762-8.26m-7.258 7.704c1.047 0 1.953.663 2.482 2.652 1.127 4.242 2.52 10.342 1.128 11.601s-5.105 2.122-7.093-.397c0 0-4.442-3.713-3.381-7.16 1.06-3.447.86-3.713 3.114-5.105 1.197-.739 2.564-1.591 3.75-1.591"/>
  <path fill="#331e04" d="M59.063 219.49c-.1.001-.2.001-.3.01-1.538.09-3.99 1.707-6.117 3.357 2.126.05 5.315.353 5.93 1.705.937 2.063 5.062 9.375 5.437 10.875s.75 8.25-.188 9.375c-.7.841-6.218 2.52-8.96 3.314 1.34 1.216 2.716 2.429 4.273 3.249 3.562 1.875 6.75.562 10.5-2.625s1.312-6.188.937-8.813-2.437-6.375-3.75-12.187c-1.271-5.631-4.654-8.27-7.762-8.26"/>
  <path fill="#4d2e08" d="M31.301 161.897c-1.845.03-4.006 1.99-5.73 2.852-2.249 1.125-1.686 2.062-1.5 4.5.188 2.433-2.613 4.68-2.623 4.687-5.063 5.25-1.314 9.75.186 12s7.875 2.625 9.938 2.25c2.063-.374 3.75-2.625 4.875-5.25s.374-7.687.188-11.25c-.188-3.562-1.688-7.312-3.75-9.187a2.2 2.2 0 0 0-1.584-.602m-6.955 10.431c.11.007.233.07.382.202.797.703 2.719.656 2.297 2.906s-.045 4.781-1.922 6.422c-1.875 1.641-1.969 3.563-3.14 2.203 0 0-2.25-1.781-1.454-5.109.797-3.328.657-2.437 2.016-4.172 1.104-1.409 1.343-2.478 1.82-2.452"/>
  <path fill="#331e04" d="M31.306 161.897c-1.303.021-2.764 1.005-4.117 1.885 1.292 1.242 3.031 3.137 3.263 4.529.375 2.25 1.875 9.188.563 11.25-1.313 2.063-6.563 6.75-8.25 7.125a.7.7 0 0 0-.229.091c2.311 1.5 7.269 1.732 9.041 1.409 2.063-.374 3.75-2.625 4.875-5.25s.375-7.687.188-11.25c-.188-3.562-1.688-7.312-3.75-9.187a2.2 2.2 0 0 0-1.584-.602"/>
  <path fill="#4d2e08" d="M65.855 145.968c-.932 0-1.748.031-2.222.031-1.688 0-3.563 2.625-3.563 4.125s1.313 5.813 1.313 5.813.562 5.062 4.875 5.812 3.562-2.25 5.812-5.625-.375-6.75-.562-8.625c-.135-1.348-3.272-1.533-5.653-1.531m-2.91 1.181c.244-.008.547.183.97.631 1.5 1.594 1.968 3.188 1.405 4.969s-2.25 4.969-2.812 3.281c0 0-2.344-4.031-1.219-6.093.809-1.483 1.036-2.772 1.657-2.788"/>
  <path fill="#331e04" d="M65.552 145.969c-.152 0-.296.008-.44.008 1.484 1.289 3.106 2.965 3.4 4.336.562 2.624.75 7.124-1.313 8.25-1.168.637-2.997.912-4.364 1.032.73.994 1.817 1.875 3.426 2.155 4.313.75 3.563-2.25 5.813-5.625s-.376-6.75-.563-8.625c-.14-1.406-3.55-1.547-5.959-1.529z"/>
  <path fill="#4d2e08" d="M18.739 147.231c-1.995.04-4.105 2.187-4.416 4.205-.375 2.438-.937 5.438-1.875 6.75s.375 3 2.813 4.688 5.438-1.125 5.438-1.125 3-3.938 3.562-8.25c.563-4.313-2.063-4.875-4.312-6a2.56 2.56 0 0 0-1.21-.268m-2.595 6.075c.788.01 1.59.433 1.46 1.787-.186 1.968-.468 2.906-.937 4.031s-.28 2.625-2.25 1.594c0 0-1.78-1.125-.844-2.25.938-1.125.75-4.594 1.594-4.969a2.4 2.4 0 0 1 .977-.193"/>
  <path fill="#331e04" d="M18.738 147.231c-1.994.04-4.104 2.187-4.415 4.205 0 .024-.008.048-.01.071 1.334-.705 4.7-2.278 5.447-.633.938 2.062.75 5.625.188 6.937-.484 1.129-1.8 4.196-3.708 5.511 2.193.55 4.458-1.573 4.458-1.573s3-3.938 3.562-8.25c.563-4.313-2.062-4.875-4.312-6a2.56 2.56 0 0 0-1.21-.268"/>
  <path fill="#4d2e08" d="M61.298 105.276c-2.162 0-4.272 1.582-5.537 2.848-1.688 1.687-1.5 4.875-1.875 7.312s1.125 5.063 5.062 5.625 4.5-3.187 4.5-3.187 1.875-3 3.375-6.375-.562-3.938-3.375-5.625a4.1 4.1 0 0 0-2.15-.598m-5.32 5.43c.214-.013.479.054.816.23 1.077.562 2.25.142 2.484 1.875.235 1.735.61 1.922 0 3.281s-.984 3.375-2.484 2.485c0 0-2.016-.516-2.016-2.86s-.141-3.468.236-4.125c.257-.451.492-.859.965-.886z"/>
  <path fill="#331e04" d="M61.3 105.276c-1.374 0-2.725.639-3.854 1.43 1.751.321 4.052.996 4.505 2.355.75 2.25.75 5.813 0 6.938-.687 1.03-1.689 3.949-4.88 4.576a8.2 8.2 0 0 0 1.88.486c3.937.563 4.5-3.187 4.5-3.187s1.875-3 3.375-6.375-.563-3.938-3.375-5.625a4.1 4.1 0 0 0-2.15-.598"/>
  <path fill="#4d2e08" d="M114.691 80.81c-1.613.014-3.486.554-5.678 1.25-4.125 1.313-6.562 1.5-14.812 6s.375 11.25.375 11.25c5.062 4.501 20.062 7.315 23.437 7.315s6.938-6.564 7.5-10.502c.563-3.937-4.874-11.623-7.125-13.873-1.054-1.055-2.274-1.451-3.697-1.439zm-12.012 4.815c.37 0 .756.086 1.178.28 2.25 1.03 3.75-.47 4.594 3 .843 3.468 1.781 5.343.094 7.78-1.688 2.438.093 3.938-3.75 3-3.844-.936-4.219-.75-6.47-1.593-2.249-.844-3.093-1.5-3.75-2.062 0 0-3.093-2.157-1.78-4.125 1.312-1.97 1.03-2.344 4.312-3.657 2.666-1.066 3.97-2.628 5.572-2.623"/>
  <path fill="#331e04" d="M114.69 80.81c-1.612.014-3.486.554-5.677 1.251-1.017.324-1.931.578-2.855.847 3.248.47 9.043 1.538 9.98 3.278 1.312 2.438 3.937 5.625 2.25 9.75-1.688 4.125-2.625 6.563-8.438 7.313-1.956.252-3.379.632-4.409 1.025 5.283 1.504 10.622 2.35 12.472 2.35 3.375 0 6.937-6.564 7.5-10.502.562-3.937-4.875-11.623-7.125-13.873-1.055-1.055-2.275-1.452-3.698-1.439"/>
  <path fill="#deb47b" d="M192.605 57.072s-6.307 12.613-17.168 11.037c-10.861-1.577-23.299-11.387-25.226-15.416-1.927-4.03-5.956-9.81 3.153-17.343s14.19-11.737 15.416-14.54 4.555-5.781 8.059-4.73 7.883 2.803 10.511 12.263 7.007 15.24 7.532 18.043-.525 7.708-2.277 10.686"/>
  <path fill="#d7ab6f" d="M175.217 15.867c-2.87.088-5.402 2.578-6.437 4.943-1.226 2.803-6.307 7.007-15.416 14.54s-5.08 13.313-3.153 17.343 14.365 13.84 25.226 15.416 17.168-11.037 17.168-11.037c1.752-2.978 2.803-7.883 2.277-10.686s-4.905-8.583-7.533-18.043c-2.627-9.46-7.007-11.212-10.51-12.263a5 5 0 0 0-1.622-.213m-1.834 5.732c.894-.009 1.747.459 2.404 1.839 1.752 3.678 3.679 9.284 1.052 13.313-2.628 4.03-8.234 10.336-12.964 9.81-17.513-4.34-11.452-3.674-.525-14.89 3.153-3.328 4.379-7.007 5.956-8.058.985-.657 2.587-1.998 4.077-2.014"/>
  <path fill="url(#b)" d="M182.642 19.273c.713 2.698 2.178 6.436 2.436 8.237 1.114 7.804 1.857 8.67-.125 18.58s-7.927 5.45-17.341 9.415c-6.326 2.663-16.619-3.973-19.822-12.104-.699 3.745 1.248 6.842 2.42 9.291 1.927 4.03 14.365 13.84 25.226 15.416s17.168-11.036 17.168-11.036c1.752-2.978 2.803-7.883 2.277-10.686s-4.905-8.584-7.533-18.044c-1.262-4.543-2.927-7.306-4.706-9.07"/>
  <path fill="#deb47b" d="M196.677 78.127s2.569-2.91 7.364-4.966 9.59-3.254 13.015.514 7.192 5.309 5.994 11.131c-1.199 5.823-5.652 18.495-8.049 20.379-2.398 1.884-11.131 4.452-14.043.342s-9.59-12.33-9.932-16.782c-.343-4.453-1.713-5.651 5.651-10.618"/>
  <path fill="#d7ab6f" d="M211.478 71.227c-2.342-.007-4.89.843-7.437 1.935-4.795 2.055-7.364 4.966-7.364 4.966-7.364 4.966-5.994 6.165-5.651 10.617s7.021 12.673 9.932 16.783 11.645 1.541 14.043-.343 6.85-14.556 8.048-20.378-2.568-7.364-5.993-11.132c-1.606-1.766-3.512-2.441-5.578-2.448m-6.526 4.984c2.271.01 5.361.74 4.911 4.486-.513 4.281-1.37 11.645-6.165 11.645s-8.391-.343-9.076-2.398-2.226-2.569-.856-4.281c0 0 1.883-3.254 3.938-4.966s4.11-4.282 6.337-4.453c.278-.021.586-.035.911-.033"/>
  <path fill="url(#c)" d="M215.637 72.44c1.084 4.19 1.977 8.445 1.977 12.997 0 5.812-5.327 9.203-10.655 12.594-3.623 2.305-10.823-2.778-15.064-6.268 1.966 4.52 6.727 10.466 9.064 13.765 2.911 4.11 11.645 1.541 14.042-.342s6.85-14.556 8.049-20.38c1.199-5.821-2.569-7.363-5.994-11.13a7.8 7.8 0 0 0-1.419-1.237"/>
</svg>
