<svg xmlns="http://www.w3.org/2000/svg" fill="none" viewBox="0 0 301 359">
  <defs>
    <linearGradient id="a" x1="86.007" x2="58.771" y1="283.939" y2="268.718" gradientUnits="userSpaceOnUse">
      <stop stop-color="#c6934e"/>
      <stop offset="1" stop-color="#c6934e00"/>
    </linearGradient>
    <linearGradient id="c" x1="142.978" x2="124.271" y1="286.567" y2="279.863" gradientTransform="rotate(-5.324 149.6 169.629)" gradientUnits="userSpaceOnUse" href="#a"/>
    <linearGradient id="d" x1="197.588" x2="171.416" y1="223.587" y2="151.645" gradientTransform="rotate(-5.324 149.6 169.629)" gradientUnits="userSpaceOnUse">
      <stop stop-color="#c39049"/>
      <stop offset="1" stop-color="#c3904900"/>
    </linearGradient>
    <linearGradient id="b" x1="86.007" x2="58.771" y1="283.939" y2="268.718" gradientTransform="rotate(-5.324 149.6 169.629)" gradientUnits="userSpaceOnUse" href="#a"/>
  </defs>
  <path fill="#f4f2e5" d="M177.421 25.95c-9.854-1.057-19.561-3.682-29.516-3.62-2.503.127-5.782.35-6.834 3.062-2.575 4.9-.405 10.447-.715 15.636-.057 2.67-2.193 4.882-4.8 5.256-4.109 1.069-8.967 2.435-10.805 6.715-1.92 4.74-1.525 9.835-1.247 14.804.163 3.956 1.11 7.856 1.084 11.814-.259 5.669-3.764 11.716-9.55 13.116-5.667.965-10.814-2.354-15.471-5.094-3.515-2.063-7.489-3.969-11.773-3.462-8.185.853-14.146 9.272-13.413 17.256.215 4.62 1.23 9.76-1.39 13.915-2.275 2.354-5.814 1.13-8.572.552-6.149-1.355-13.405-.211-17.6 4.865-4.311 4.865-5.438 11.75-4.66 18.03.012 12.81.811 25.76 5.484 37.9 2.994 7.87 6.936 15.383 12.45 21.837.848 1.291 2.81 2.285 2.647 4.142 1.815 11.137 9.07 20.628 17.793 27.437 4.18 3.775 9.41 6.804 15.157 7.043 4.955 2.421 9.675 5.355 14.947 7.081 7.16 2.68 14.452 4.24 21.919 5.96-4.63 1.838-9.104 4.223-12.677 7.75-2.663 2.707-5.142 5.615-8.23 7.868-1.08 1.278-1.921 1.375-2.392-.357-5.887-11.15-15.341-20.796-26.789-25.97-5.369-2.55-11.396-3.85-17.328-3.003-10.176 1.274-20.01 7.499-24.44 16.904-2.76 6.8-2.987 14.256-5.584 21.157-1.587 5.327-2.752 10.907-2.85 16.157-.283 7.391 1.955 14.976 6.925 20.553 4.43 5.208 10.752 8.615 17.393 9.941 11.347 2.705 23.401 1.881 34.235-2.235 5.64-2.178 10.88-5.09 15.495-9.078.837-1.187 2.607-1.042 3.267.23 6.111 5.81 14.93 7.914 23.001 7.921 7.902.139 16.142-.19 23.451-3.5 9.291-4.486 16.065-13.73 17.408-23.905 1.979-10.867-.426-23.032-8.342-31.09-1.474-1.572-3.248-2.806-4.95-4.11 5.126-2.45 10.837-2.902 16.323-4.05 14.321-3.087 28.943-5.99 41.823-13.139 9.804-5.707 18.53-13.062 26.905-20.658 5.157-5.31 8.478-11.973 10.606-18.946 2.31-4.999 6.712-8.736 8.132-14.184 2.643-8.307 1.667-17.343 4.788-25.545 2.599-8.53 6.566-16.726 6.328-25.808-.368-8.778-4.75-16.753-7.74-24.925-3.252-8.145-6.247-16.38-9.954-24.35-3.511-6.753-7.854-13.077-12.728-18.915-3.696-3.868-8.23-6.746-12.317-10.3-10.72-8.647-22.264-15.71-34.58-21.91-6.146-3.057-12.353-5.721-19.094-6.554z"/>
  <path fill="#deb47b" d="M56.014 302.985s-11.355-2.78-4.524-23.409.761-19.67 12.41-25.295c11.65-5.626 28.106 12.958 30.529 19.597s11.21 20.607-7.409 28.23-31.007.877-31.007.877"/>
  <path fill="#d7ab6f" d="M58.48 257.322c-4.19 3.197-1.652 6.138-6.99 22.254-6.831 20.628 4.524 23.409 4.524 23.409s12.387 6.747 31.006-.876c18.62-7.624 9.831-21.592 7.409-28.231-2.423-6.64-18.877-25.225-30.527-19.597-2.55 1.23-4.25 2.145-5.423 3.04m1.357 8.11c.85-.623 2.041-.745 3.683.22 3.75 2.2 9.626 5.822 8.315 13.14-1.308 7.32-2.668 16.55-7.993 16.932-9.367 1.758-12.63-6.524-10.16-12.224 2.32-4.696 3.949-12.261 4.32-14.421.206-1.215.74-2.845 1.835-3.647"/>
  <path fill="url(#b)" d="M63.456 254.498c6.982 4.26 15.052 11.147 17.757 14.635 4.62 5.958 13.15 18.935-6.228 27.998-6.519 3.05-13.856 5.421-20.855 4.955 1.065.692 1.885.896 1.885.896s12.388 6.75 31.007-.874c18.618-7.625 9.831-21.593 7.409-28.231-2.423-6.64-18.878-25.225-30.527-19.599-.157.076-.297.147-.447.22"/>
  <path fill="#deb47b" d="M156.437 277.84s4.996 21.681-14.818 22.95c-19.813 1.27-22.043-2.717-22.973-9.794-.93-7.078 1.029-10.388 6.072-13.689s8.073-10.81 14.462-10.57 15.211 2.034 17.257 11.103"/>
  <path fill="#d7ab6f" d="M121.511 279.844c-2.635 2.655-3.562 5.844-2.865 11.152.931 7.077 3.16 11.063 22.973 9.794 19.814-1.269 14.818-22.949 14.818-22.949-2.046-9.07-10.867-10.864-17.256-11.103-6.389-.24-9.42 7.267-14.463 10.57-1.26.825-2.328 1.65-3.207 2.536m10.64-7.195c.538-.559 1.111-.98 1.742-1.223 2.02-.775 7.635.491 7.058 7.056-.578 6.565-4.415 14.523-8.308 14.668-3.892.146-9.16 4.195-10.589.283 0 0-1.91-5.946.253-8.44 2.163-2.496 4.484-4.52 6.333-7.33 1.272-1.93 2.323-3.79 3.511-5.014"/>
  <path fill="url(#c)" d="M139.2 266.738c2.41 2.218 4.718 4.477 6.414 6.43 5.772 6.649.086 12.38-2.515 18.563-2.01 4.781-15.182 7.484-22.447 5.28 2.423 3.15 7.828 4.621 20.968 3.78 19.814-1.269 14.818-22.949 14.818-22.949-2.044-9.062-10.85-10.864-17.239-11.104"/>
  <path fill="#deb47b" d="M175.377 42.976c-4.97-.726-10.484-.956-16.113-.85 4.21 25.656-20.803 20.078-20.803 20.078 4.513 11.436 6.936 28.487-8.758 42.237s-37.877-1.314-37.877-1.314c2.244 40.43-32.471 29.308-32.471 29.308l-.035.028c.076 3.9.129 8.117.056 12.964-.351 23.583 11.43 40.84 15.578 44.09 4.15 3.25 14.598 18.241 17.735 23.917 3.136 5.675 25.904 17.076 33.41 17.741 7.504.666 19.293 6.534 30.262 6.177s43.398-8.463 49.855-11.653 28.163-18.808 30.498-24.858 4.252-12.464 8.178-18.23c3.924-5.765 3.985-16.369 6.496-25.572 2.513-9.202 6.331-16.531 6.739-22.056s-4.924-14.584-13.615-38.333c-8.691-23.75-38.086-40.196-56.42-49.937-3.438-1.826-7.813-3.022-12.715-3.737"/>
  <path fill="#dbb177" d="M176.289 43.114c-5.204-.835-11.05-1.1-17.026-.989 4.21 25.656-20.803 20.08-20.803 20.08 1.989 5.036 3.57 11.166 3.375 17.622 7.742 8.74 14.542 22.735 14.614 30.214.09 9.434 2.1 22.623-12.884 30.866s-31.99 19.4-38.183 18.157c-8.13-5.589-17.84-20.341-20.903-30.443-9.616 8.78-25.124 3.814-25.124 3.814l-.035.028c.076 3.9.129 8.116.056 12.964-.351 23.582 11.43 40.838 15.578 44.089 4.15 3.25 14.598 18.242 17.734 23.917s25.904 17.077 33.41 17.741c7.505.666 19.293 6.535 30.263 6.178s43.397-8.464 49.854-11.654c6.456-3.19 28.162-18.808 30.497-24.858 2.336-6.049 4.254-12.461 8.179-18.227s3.985-16.37 6.497-25.574c2.512-9.202 6.33-16.531 6.738-22.057s-4.923-14.583-13.614-38.333-38.086-40.195-56.42-49.936c-3.224-1.713-7.27-2.87-11.803-3.6"/>
  <path fill="#d7ab6f" d="M176.289 43.114c-5.204-.835-11.05-1.1-17.026-.989 2.173 13.243-3.437 18.16-9.377 19.82 4.92.82 9.432 1.786 12.898 2.685 11.87 3.075 18.848 32.03 24.427 40.532 5.579 8.503-4.427 40.84-13.317 56.995-8.892 16.155-62.869 22.621-62.869 22.621s-22.75-7.886-26.406-12.633-11.384-20.321-13.07-36.865q-.078-.763-.125-1.525c-6.518.45-12.07-1.32-12.07-1.32l-.034.028c.076 3.9.129 8.116.056 12.964-.351 23.582 11.43 40.838 15.578 44.089 4.15 3.25 14.598 18.242 17.734 23.917s25.904 17.077 33.41 17.741c7.505.666 19.293 6.535 30.263 6.178s43.397-8.464 49.854-11.654c6.456-3.19 28.162-18.808 30.497-24.858 2.336-6.049 4.254-12.461 8.179-18.227s3.985-16.37 6.497-25.574c2.512-9.202 6.33-16.531 6.738-22.057s-4.923-14.583-13.614-38.333-38.086-40.195-56.42-49.936c-3.224-1.713-7.27-2.87-11.803-3.6"/>
  <path fill="url(#d)" d="M181.06 44.11c7.455 9.978 19.88 27.534 22.879 37.697 4.335 14.697 13.084 45.195 7.183 64.478s-30.329 43.72-46.644 48.721c-16.317 5.003-50.874 11.252-63.085 3.202-12.212-8.05-32.802-24.967-35.178-35.355-1.031-4.5-3.905-11.553-6.833-18.138-.002.243-.002.466-.005.712-.351 23.583 11.43 40.84 15.578 44.09 4.15 3.25 14.596 18.242 17.733 23.917s25.905 17.076 33.41 17.741c7.505.666 19.294 6.534 30.263 6.178 10.97-.359 43.398-8.464 49.855-11.654s28.163-18.81 30.498-24.858 4.253-12.462 8.178-18.229 3.985-16.37 6.497-25.573 6.33-16.53 6.738-22.056c.407-5.526-4.923-14.584-13.614-38.334s-38.087-40.195-56.422-49.936c-2.037-1.082-4.42-1.932-7.03-2.603"/>
  <path fill="#59370d" d="M243.409 137.952c-.929-2.095-1.742-5.377-.024-6.084s4.232-1.27 4.38.88.44 6.448-4.356 5.204M156.545 79.56s-2.927 3.145-5.587 1.56c-2.661-1.587-4.149-3.25-3.265-4.685s1.255-4.601 1.473-7.168c.217-2.568 3.157-5.516 5.582-4.505s5.2 1.412 4.921 5.946c-.28 4.535-3.124 8.852-3.124 8.852M91.801 184.17c1.742-2.308 3.827-2.978 6.76-2.725 2.934.254 5.004.966 5.213 2.187.208 1.221.135 2.994 1.788 3.842s7.088 2.873 9.411 3.23c2.326.343 7.074 1.682 7.938 3.797s2.25 4.704.776 7.847c-1.475 3.143-4.482 9.815-6.565 10.485-2.085.67-5.035-.774-6.688.953-1.652 1.728-3.647 4.394-6.15 5.198-2.5.805-7.608 1.803-9.425.731s-11.066-9.23-12.75-12.462c-7.44-15.556 1.903-17.415 9.692-23.082"/>
  <path fill="#4d2e08" d="M100.114 181.635c-.483-.077-1.005-.131-1.553-.188-2.934-.255-5.019.417-6.76 2.726-7.79 5.667-17.133 7.526-9.691 23.082 1.683 3.231 10.932 11.39 12.748 12.462 1.817 1.072 6.925.073 9.427-.73 2.501-.805 4.497-3.47 6.15-5.199 1.651-1.727 4.6-.284 6.686-.954 2.084-.67 5.091-7.341 6.564-10.484 1.474-3.143.093-5.733-.775-7.848-.864-2.114-5.615-3.44-7.938-3.796-2.325-.343-7.758-2.382-9.411-3.23s-1.579-2.62-1.788-3.842c-.17-.992-1.567-1.651-3.66-1.999m-2.236 2.99c1.628.263 3.16.805 3.73 1.805.826 1.46 2.185 1.736 3.349 2.827 1.164 1.089 4.218 3.1 2.607 5.374-1.61 2.275-6.775 8.068-12.583 6.194s-9.717-.583-10.024-7.707c0 0 .11-2.085 4.316-4.38s4.159-4.265 6.401-4.271a18 18 0 0 1 2.204.159"/>
  <path fill="#331e04" d="M116.646 191.045c.233 1.895.877 8.924-1.97 11.9-3.305 3.456-6.64 4.528-9.32 6.494s-7.744 3.962-13.134.36c-5.392-3.603-9.992-7.324-10.829-14.645-.187-1.64 1.444-4.65 1.416-4.825-3.607 3.247-5.134 7.653-.7 16.924 1.684 3.231 10.933 11.391 12.75 12.463 1.816 1.071 6.924.072 9.426-.732s4.496-3.47 6.15-5.198c1.652-1.727 4.6-.283 6.686-.953 2.084-.67 5.091-7.342 6.565-10.484s.092-5.734-.775-7.848c-.689-1.684-3.837-2.864-6.265-3.456"/>
  <path fill="#59370d" d="M199.129 110.233s5.635-3.723 10.512-1.307 6.933.899 9.115 4.09c2.18 3.187 4.441 7.548 3.536 11.536-.907 3.988-.913 6.738-3.818 7.329-2.902.603-11.467-1.18-12.699-4.826s-3.216-6.847-5.08-8.29c-1.867-1.443-4.296-5.4-1.566-8.532"/>
  <path fill="#4d2e08" d="M205.265 108.139c-3.35.253-6.137 2.094-6.137 2.094-2.73 3.131-.3 7.088 1.565 8.532 1.866 1.443 3.852 4.645 5.082 8.29 1.23 3.646 9.794 5.416 12.699 4.826 2.901-.603 2.912-3.34 3.818-7.33.906-3.987-1.356-8.348-3.538-11.537-2.18-3.188-4.236-1.673-9.113-4.089-1.448-.716-2.962-.894-4.376-.786m.224 1.796c1.376-.076 2.425.182 3.285 1.406 1.25 1.78 3.191 5.77 1.77 7.928-1.424 2.159-2.417 4.14-4.155 3.13s-2.544-2.034-3.32-3.355c-.778-1.322-1.656-1.948-2.275-2.398 0 0-1.699-1.159-.589-3.59s.713-2.503 3.19-2.869c.775-.116 1.468-.216 2.094-.252"/>
  <path fill="#331e04" d="M212.098 109.926c1.368 1.726 3.338 4.253 3.633 4.867.458.95 1.938 5.364 1.626 6.564-.31 1.2-.932 3.597-3.264 3.953-1.887.29-6.189.997-8.742.598q.222.566.42 1.15c1.231 3.647 9.793 5.417 12.698 4.826 2.903-.603 2.913-3.34 3.818-7.329s-1.356-8.349-3.537-11.537c-1.773-2.592-3.461-2.079-6.652-3.092"/>
  <path fill="#59370d" d="M180.38 74.552c-1.838-1.052-3.447-4.477-1.586-5.979 1.86-1.5 4.334-2.65 4.845-.92.511 1.732.61 6.045-3.259 6.899"/>
  <path fill="#4d2e08" d="M182.257 66.796c-1.002.1-2.344.876-3.463 1.78-1.86 1.5-.252 4.924 1.586 5.976 3.868-.855 3.77-5.166 3.26-6.897-.205-.69-.72-.923-1.383-.859m-2.336 1.666c.07-.02.151-.006.242.009.475.115.645.104.613.72-.033.615.14.825-.387 1.498-.542.675-.994 1.245-1.503.618 0 0-.564-.698-.4-1.2.16-.502.105-.844.561-1.118.364-.224.561-.503.877-.537z"/>
  <path fill="#331e04" d="M182.296 66.793a3 3 0 0 0-.491.07c-.006.036.017.08.023.113.282 1.356-.244 2.176-.15 3.544.064.93-1.477 2.24-2.472 2.984.356.432.76.793 1.177 1.03 3.867-.853 3.769-5.165 3.258-6.896-.201-.678-.7-.914-1.344-.861z"/>
  <path fill="#4d2e08" d="M245.662 131.248c-.749.07-1.58.328-2.276.618-1.72.707-.907 3.989.022 6.084 4.797 1.244 4.503-3.056 4.356-5.205-.086-1.277-1.007-1.596-2.102-1.497m-2.054 1.246c.075-.017.17.027.278.096.436.283 1.032 1.387.76 1.996-.271.609-.904 1.971-1.44 1.244 0 0-.707-1.2-.29-2.2.312-.75.457-1.118.692-1.136"/>
  <path fill="#331e04" d="M245.663 131.25c-.174.004-.35.042-.53.076.494.736 1.089 1.798 1.15 2.7.106 1.564.314 1.746-.425 2.385-.495.428-1.985.382-2.918.329.144.427.304.84.47 1.212 4.797 1.244 4.503-3.056 4.356-5.205-.086-1.277-1.008-1.597-2.103-1.498"/>
  <path fill="#59370d" d="M124.25 108.025c-11.356 5.324-24.175-.286-29.664-3.271-1.852 2.292-.286 5.535 2.397 9.512 3.116 4.618 5.063 4.093 10.597 4.453 5.536.362 8.918-3.465 12.837-6.177 1.999-1.381 3.1-2.957 3.834-4.517"/>
  <path fill="#4d2e08" d="M124.249 108.025c-5.323 2.495-10.972 2.58-16.042 1.664-.987.727-1.996 1.19-2.91 1.213-2.45.06-6.773.974-9.01-3.223 0 0-.675-.896.145-1.976a51 51 0 0 1-1.845-.95c-1.852 2.293-.29 5.534 2.394 9.512 3.115 4.618 5.064 4.095 10.6 4.455 5.534.362 8.916-3.465 12.836-6.175 1.998-1.383 3.098-2.96 3.832-4.52"/>
  <path fill="#331e04" d="M124.244 108.027c-3.562 1.669-7.27 2.253-10.854 2.187-2.083 1.176-4.129 2.13-5.585 2.555-3.618 1.053-8.156-1.092-10.356-2.235a119 119 0 0 1-3.438-1.892c.459 1.651 1.558 3.535 2.967 5.624 3.115 4.619 5.062 4.095 10.597 4.456 5.536.36 8.917-3.468 12.837-6.18 1.999-1.382 3.098-2.956 3.832-4.515"/>
  <path fill="#59370d" d="M182.936 162.438s5.07-6.235 6.421-.831 1.161 8.362-1.77 8.563c-2.932.2-5.485.178-5.437-1.985s.786-5.747.786-5.747"/>
  <path fill="#4d2e08" d="M187.204 159.409c-1.925.148-4.268 3.03-4.268 3.03s-.737 3.584-.784 5.747 2.505 2.184 5.436 1.984 3.121-3.159 1.77-8.563c-.431-1.732-1.248-2.268-2.154-2.198m-1.887 1.94c.243-.021.411.159.526.699.199.96-.012 3.402-.456 4.022-.443.62-2.587 2.259-2.527 1.11 0 0 .207-3.103.636-3.965.426-.862.45-1.037 1.113-1.5.29-.201.522-.346.71-.365z"/>
  <path fill="#331e04" d="M187.274 159.404a2.4 2.4 0 0 0-.744.157c.733.9 1.47 2.093 1.335 3.13-.258 1.98-.306 4.143-1.424 5.005-1.12.862-2.252 1.528-3.815 1.634-.05.023-.088.02-.128.028.786 1 2.827.98 5.096.818 2.932-.2 3.122-3.158 1.77-8.563-.423-1.69-1.206-2.242-2.088-2.202z"/>
  <path fill="#59370d" d="M205.447 208.672s.066-7.661 3.934-8.515 6.355-1.808 6.71.524c.355 2.33.375 5.47 1.041 6.603.667 1.132 2.491 1.989 2.248 4.165-.244 2.177-.447 4.939-2.53 6.063s-4.322 2.847-6.08 2.968c-1.758.12-4.796-1.244-5.36-3.757s.037-8.051.037-8.051"/>
  <path fill="#4d2e08" d="M213.94 199.231c-1.14.075-2.69.513-4.565.918-3.869.854-3.934 8.514-3.934 8.514s-.603 5.538-.038 8.052c.563 2.513 3.6 3.877 5.36 3.756 1.76-.12 3.997-1.843 6.08-2.967s2.286-3.887 2.53-6.063c.245-2.177-1.582-3.034-2.248-4.166s-.684-4.273-1.04-6.604c-.183-1.202-.933-1.53-2.147-1.45zm-5.773 7.17c.736-.049 1.57.252 2.142 1.184 1.016 1.666 2.97 4.864 2.318 6.506-.651 1.641-1.474 4.82-4.796 3.937 0 0-1.785-.712-1.644-4.747.14-4.036-.024-5.411.615-6.219.278-.354.792-.616 1.365-.66"/>
  <path fill="#331e04" d="M213.83 199.24c-1.127.106-2.638.517-4.45.923-.318.066-.61.188-.878.343 1.251.623 2.113.88 3.245 1.264 2.411.817 2.832 2.653 2.615 5.22s3.626 2.796.594 8.696c-.86 1.676-5.424 3.287-7.009 4.085.97.52 2.027.77 2.822.717 1.76-.12 3.997-1.844 6.08-2.969 2.083-1.123 2.286-3.886 2.53-6.062s-1.582-3.033-2.248-4.165-.685-4.273-1.04-6.604c-.188-1.24-.98-1.55-2.258-1.441z"/>
  <path fill="#59370d" d="M138.492 134.534s10.93 4.405 14.655 4.045 5.84-.224 7.388 1.945 2.86 4.647 1.542 7.338c-1.315 2.692-5.678 8.726-8.559 11.208s-9.32 8.656-11.947 8.868-5.867-1.031-8.164-2.539c-2.298-1.51-7.022-3.39-8.58-4.58-1.555-1.188-5.202-5.451-4.79-7.603.41-2.151 2.198-9.656 3.854-10.856s4.611-3.134 6.46-3.94c1.847-.808 4.434-5.485 8.14-3.886"/>
  <path fill="#4d2e08" d="M159.422 139.378c-1.443-1.057-3.369-1.079-6.28-.798-3.724.36-14.655-4.043-14.655-4.043-3.707-1.6-6.294 3.078-8.143 3.885-1.848.807-4.803 2.74-6.458 3.94-1.657 1.2-3.445 8.705-3.855 10.857s3.235 6.414 4.791 7.603 6.28 3.07 8.579 4.58c2.299 1.507 5.54 2.75 8.165 2.54 2.625-.212 9.065-6.387 11.947-8.869 2.88-2.482 7.243-8.516 8.558-11.208s.005-5.17-1.542-7.339a5 5 0 0 0-1.107-1.148m-15.661.6c1.502 1.147 2.232 2.6.174 5.495-3.292 4.634-12.544 10.136-15.319 9.25-2.773-.886-5.336-1.242-5.356-3.474 0 0-.154-4.8 4.871-8.479 5.028-3.678 4.664-4.817 7.118-5.286 2.453-.469 2.616-1.329 5.382.536 1.036.7 2.23 1.263 3.13 1.958"/>
  <path fill="#331e04" d="M159.428 139.377c-1.442-1.056-3.37-1.078-6.279-.797a7 7 0 0 1-1.22-.016 17 17 0 0 1 1.679 1.353c2.564 2.45 4.625 4.27 2.686 6.487-1.939 2.216-9.924 10.412-11.424 11.731-1.5 1.32-7.868 3.85-9.863 3.558-1.996-.29-7.772-2.73-9.603-3.883-1.17-.737-3.47-2.276-5.298-3.506.563 2.268 3.398 5.506 4.723 6.517 1.557 1.19 6.28 3.07 8.58 4.579 2.297 1.51 5.539 2.751 8.166 2.538 2.626-.212 9.064-6.384 11.945-8.867 2.883-2.481 7.243-8.516 8.56-11.209 1.315-2.692.004-5.17-1.543-7.338a5 5 0 0 0-1.109-1.147"/>
  <path fill="#59370d" d="M164.784 213.47s8.38 5.907 9.228 9.132c.847 3.228-1.108 7.416-6.79 9.956s-9.098 5.425-11.71 6.35c-2.606.937-5.181 4.037-9.217.854-4.037-3.185-6.037-6.18-4.85-10.213 1.187-4.034 4.679-7.533 5.329-11.26.648-3.727 6.138-8.227 9.134-8.229 2.995-.002 4.455-.696 8.876 3.41"/>
  <path fill="#4d2e08" d="M174.083 222.908c-.034-.098-.039-.204-.07-.305-.85-3.225-9.229-9.133-9.229-9.133-4.42-4.106-5.88-3.413-8.877-3.41-2.996.001-8.483 4.502-9.133 8.228-.648 3.727-4.142 7.227-5.329 11.26-1.187 4.034.814 7.029 4.85 10.213 4.037 3.184 6.607.07 9.218-.853 2.607-.939 6.027-3.81 11.71-6.35 5.505-2.461 7.511-6.468 6.86-9.65m-9.383-5.847c.215 1.071-.277 2.136-2.205 3.086-4.113 2.028-10.073 4.71-11.648 3.545-1.578-1.167-3.225-4.792-1.055-7.346 0 0 2.889-5.313 6.637-4.936 3.75.375 3.98.116 5.87 2.137 1.004 1.075 2.157 2.299 2.401 3.514"/>
  <path fill="#331e04" d="M174.082 222.91c-.035-.099-.039-.205-.07-.306-.41-1.555-2.571-3.734-4.699-5.574.387 2.189.733 5.516-.525 6.424-1.92 1.385-8.559 7.115-10.018 7.807s-8.295 2.466-9.64 1.738c-1.006-.545-3.86-5.85-5.238-8.495-.97 1.623-1.93 3.282-2.449 5.045-1.186 4.035.815 7.029 4.851 10.213 4.036 3.185 6.607.07 9.217-.854 2.607-.937 6.028-3.808 11.71-6.349 5.505-2.46 7.512-6.468 6.861-9.65"/>
  <path fill="#59370d" d="M75.581 144.413s3.686-.758 4.668-3.116c.984-2.356.904-3.495 3.531-3.474s6.845-1.347 7.874 1.376.645 6.925-.873 10.33c-1.516 3.403-3.222 8.47-5.514 10.38-2.293 1.907-4.932 3.2-7.03 2.57s-7.85-4.006-8.177-6.811c-.328-2.807-1.682-8.774 5.521-11.255"/>
  <path fill="#4d2e08" d="M90.466 137.889c-1.731-.847-4.673-.05-6.685-.066-2.628-.021-2.55 1.118-3.533 3.476-.98 2.353-4.653 3.113-4.666 3.116-7.204 2.481-5.851 8.448-5.523 11.254.327 2.806 6.081 6.181 8.179 6.811s4.735-.663 7.028-2.57c2.292-1.91 3.998-6.976 5.515-10.38s1.902-7.605.873-10.329a2.32 2.32 0 0 0-1.189-1.312m-11.425 6.405c.098.063.185.176.26.369.408 1.033 2.22 1.901.759 3.795-1.46 1.894-2.311 4.428-4.837 5.064-2.524.636-3.524 2.38-3.969.558 0 0-1.248-2.726 1.074-5.444s1.768-1.956 3.856-2.925c1.696-.787 2.426-1.669 2.858-1.418"/>
  <path fill="#331e04" d="M90.461 137.89c-1.223-.599-3.048-.379-4.726-.201.613 1.77 1.331 4.358.887 5.764-.72 2.271-2.617 9.439-4.817 10.736-2.201 1.296-9.312 3.164-11.06 2.713a.36.36 0 0 0-.256-.012c1.438 2.493 5.941 5.063 7.743 5.604 2.098.63 4.736-.662 7.029-2.571s3.998-6.975 5.516-10.38c1.516-3.403 1.901-7.605.871-10.328a2.32 2.32 0 0 0-1.187-1.313z"/>
  <path fill="#59370d" d="M222.382 86.193s-1.675-4.4-1.782-5.964c-.106-1.563 1.66-4.433 3.419-4.553 1.758-.12 7.985-.938 8.315 1.003.327 1.94 3.304 5.27 1.2 8.948-2.104 3.677-1.112 6.75-5.657 6.277-4.548-.475-5.495-5.711-5.495-5.711"/>
  <path fill="#4d2e08" d="M226.333 75.486c-.971.066-1.82.157-2.313.19-1.76.12-3.527 2.99-3.42 4.552.107 1.564 1.782 5.965 1.782 5.965s.948 5.235 5.495 5.71 3.552-2.599 5.657-6.277-.872-7.007-1.2-8.948c-.239-1.394-3.52-1.364-6-1.192m-2.948 1.437c.252-.023.582.15 1.053.59 1.677 1.554 2.28 3.181 1.82 5.077s-1.991 5.339-2.698 3.62c0 0-2.73-4.033-1.703-6.263.736-1.603.882-2.963 1.528-3.024"/>
  <path fill="#331e04" d="M226.014 75.51c-.16.005-.309.029-.457.04 1.638 1.239 3.447 2.87 3.85 4.278.775 2.696 1.289 7.372-.78 8.692-1.171.747-3.058 1.164-4.474 1.387.831.983 2.027 1.824 3.723 2 4.548.475 3.553-2.598 5.658-6.275 2.104-3.677-.872-7.008-1.201-8.95-.247-1.455-3.81-1.359-6.319-1.168z"/>
  <path fill="#4d2e08" d="M153.467 64.568c-2.075.183-4.121 2.572-4.302 4.698-.217 2.568-.59 5.734-1.473 7.168s.604 3.1 3.266 4.685c2.66 1.585 5.586-1.559 5.586-1.559s2.846-4.318 3.125-8.853c.28-4.534-2.496-4.933-4.922-5.945a2.8 2.8 0 0 0-1.278-.205zm-2.27 6.517c.821-.043 1.686.339 1.649 1.757-.056 2.065-.281 3.063-.685 4.27-.409 1.205-.106 2.756-2.232 1.821 0 0-1.936-1.045-1.04-2.284.898-1.24.455-4.841 1.308-5.292a2.5 2.5 0 0 1 1.004-.273z"/>
  <path fill="#331e04" d="M153.467 64.568c-2.076.183-4.122 2.572-4.302 4.697-.004.03.023.049-.014.076 1.34-.83 4.736-2.708 5.632-1.047 1.124 2.082 1.176 5.809.69 7.215-.425 1.21-1.577 4.5-3.472 6.008 2.325.417 4.534-1.957 4.534-1.957s2.847-4.318 3.125-8.852c.279-4.535-2.496-4.934-4.922-5.946a2.8 2.8 0 0 0-1.278-.204z"/>
  <path fill="#59370d" d="M160.735 110.739s-2.487 3.083-5.739.496c-3.252-2.586-3.218-5.744-1.592-7.743s3.138-4.97 5.55-5.6 6.474-.974 8.119 2.031c1.643 3.006 3.206 4.603.07 6.852-3.134 2.25-6.408 3.964-6.408 3.964"/>
  <path fill="#4d2e08" d="M165.45 98.249c-1.949-1.142-4.686-.83-6.496-.357-2.412.63-3.925 3.601-5.55 5.6-1.626 2-1.66 5.157 1.592 7.743s5.739-.496 5.739-.496 3.274-1.713 6.409-3.964 1.566-3.849-.072-6.852a4.3 4.3 0 0 0-1.623-1.674m-7.662 2.084c.197.114.403.302.614.64.674 1.075 1.952 1.315 1.249 3-.704 1.689-.465 2.055-1.733 2.958-1.267.903-2.67 2.522-3.552.927 0 0-1.543-1.529-.306-3.64 1.238-2.114 1.704-3.203 2.391-3.594.47-.271.896-.516 1.337-.29"/>
  <path fill="#331e04" d="M165.445 98.249c-1.237-.726-2.794-.862-4.228-.747 1.409 1.214 3.126 3.037 2.816 4.501-.512 2.425-2.394 5.635-3.663 6.253-1.163.566-3.608 2.668-6.815 1.548a8.6 8.6 0 0 0 1.438 1.43c3.251 2.587 5.739-.496 5.739-.496s3.274-1.713 6.408-3.964c3.133-2.25 1.565-3.848-.071-6.852a4.3 4.3 0 0 0-1.624-1.673"/>
  <path fill="#59370d" d="M216.816 180.051s-9.469-6.42-1.192-11.698c8.279-5.277 10.804-5.647 15.01-7.309s7.279-2.657 9.784-.473 8.72 9.81 8.414 13.953c-.306 4.144-3.551 11.237-7.068 11.477s-19.351-1.621-24.948-5.95"/>
  <path fill="#4d2e08" d="M236.463 159.336c-1.68.131-3.594.825-5.829 1.708-4.205 1.662-6.733 2.03-15.01 7.308s1.193 11.698 1.193 11.698c5.597 4.33 21.429 6.194 24.947 5.953s6.762-7.335 7.068-11.478c.306-4.144-5.908-11.768-8.413-13.952-1.174-1.023-2.475-1.352-3.956-1.237m-12.176 5.874c.386-.025.794.035 1.25.2 2.417.915 3.874-.756 5 2.8 1.127 3.556 2.237 5.442.652 8.103s.378 4.096-3.695 3.393-4.449-.482-6.854-1.201-3.33-1.343-4.055-1.883c0 0-3.379-2.026-2.15-4.171 1.227-2.147.907-2.516 4.233-4.118 2.703-1.301 3.95-3.023 5.62-3.131z"/>
  <path fill="#331e04" d="M236.468 159.336c-1.68.13-3.594.825-5.829 1.708-1.036.409-1.97.74-2.915 1.085 3.42.26 9.534.96 10.635 2.707 1.54 2.447 4.504 5.581 3.04 10-1.466 4.42-2.269 7.027-8.274 8.222-2.023.39-3.475.9-4.522 1.384 5.614 1.19 11.239 1.691 13.166 1.56 3.518-.24 6.762-7.335 7.068-11.48.305-4.143-5.908-11.766-8.414-13.951-1.174-1.024-2.474-1.35-3.955-1.235"/>
</svg>
