<svg xmlns="http://www.w3.org/2000/svg" fill="none" viewBox="0 0 220 84">
  <defs>
    <linearGradient id="a" x1="111" x2="146" y1="67" y2="-55" gradientUnits="userSpaceOnUse">
      <stop stop-color="#7e5624"/>
      <stop offset="1" stop-color="#c79551"/>
    </linearGradient>
    <path id="outline" stroke="url(#a)" stroke-width="4" d="M8.49 43.076S9.767 1.777 72.78 15.402c0 0 24.694 4.683 64.29-5.11C176.665.5 217.676 32.856 210.747 62.648c-4.731 20.346-52.73 8.792-102.148 8.58C70.551 71.064 7.212 81.394 8.489 43.076Z" vector-effect="non-scaling-stroke" />
    <clipPath id="clipPath">
      <use href="#outline"/>
    </clipPath>
  </defs>
  <path fill="#f4f2e5" d="M149.452.018c-9.101.286-17.87 3.007-26.751 4.644-13.884 2.581-28.03 3.882-42.141 3.035-7.051-.531-13.921-2.39-20.964-2.988-10.577-1.089-21.51-.72-31.638 2.768-7.84 2.716-15.064 7.542-20.022 14.257C1.843 29.808-1.21 40.34.446 50.393 1.83 58.57 6.61 66.195 13.61 70.708c6.593 4.51 14.415 6.804 22.21 8.168 13.354 2.33 26.976 2.072 40.477 1.764 16.823-.472 33.673-1.405 50.493-.35 17.676.85 35.329 2.654 53.045 2.841 7.852.053 15.843-.354 23.368-2.776 4.147-1.31 8.091-3.49 11.044-6.727 2.192-2.339 3.711-5.248 4.552-8.331 1.509-5.216 1.445-10.768.633-16.096-1.633-9.564-6.539-18.36-13.091-25.432-10.057-11.053-23.729-18.552-38.239-21.886a77 77 0 0 0-18.65-1.865"/>
  <g clip-path="url(#clipPath)">
    <use x="-81" y="-32" href="#halftone" transform="scale(3)rotate(20)"/>
  </g>
  <use href="#outline" />
</svg>
