<svg xmlns="http://www.w3.org/2000/svg" fill="none" viewBox="0 0 220 84">
  <defs>
    <linearGradient id="a" x1="111" x2="146" y1="67" y2="-55" gradientUnits="userSpaceOnUse">
      <stop stop-color="#7e5624"/>
      <stop offset="1" stop-color="#c79551"/>
    </linearGradient>
    <path id="outline" stroke="url(#a)" stroke-width="4" d="M151.705 8.528a61.3 61.3 0 0 0-14.629 1.781c-39.604 9.795-64.304 5.11-64.304 5.11C9.746 1.792 8.468 43.1 8.468 43.1c-.127 3.825.39 7.163 1.46 10.078 6.995-1.74 19.275-3.285 18.76 13.786 0 0 10.252-4.697 14.558 4.463 20.527 2.333 46.157-.252 65.353-.169 49.43.213 97.439 11.769 102.172-8.581 1.392-5.987.846-12.077-1.233-17.909 0 0-2.749 3.359-7.18 1.37-7.411-3.326-4.289-10.281-4.289-10.281s-7.936 7.983-17.092 1.463c-7.46-5.312-3.671-14.93-3.671-14.93s-9.753 10.446-21.765-.435c-3.924-3.554-3.694-9.14-3.836-13.427Z" vector-effect="non-scaling-stroke" />
    <clipPath id="clipPath">
      <use href="#outline"/>
    </clipPath>
  </defs>
  <path fill="#f4f2e5" d="M151.181.01c-9.746-.016-19.129 2.934-28.632 4.69-12.757 2.374-25.71 3.653-38.7 3.177-5.281-.122-10.49-1.02-15.685-1.98-10.818-1.827-21.995-2.536-32.824-.4-8.604 1.7-16.993 5.424-23.317 11.609C3.953 24.868-.753 36.21.099 47.439c.305 3.98 1.15 8.106 3.55 11.387 2.306 2.643 6.236 3.351 9.513 2.408 1.916-.391 3.993-.908 5.89-.175.832.612.807 1.775.98 2.699.231 2.63 0 5.495 1.516 7.807 2.187 3.425 6.927 4.795 10.648 3.23.9-.284 1.931-.768 2.89-.34 1.174 1.582 2.177 3.455 4.043 4.326 2.813 1.525 6.11 1.312 9.197 1.607 23.186 1.585 46.385-1.2 69.582-.439 12.385.413 24.734 1.34 37.099 2.152 9.652.61 19.321 1.139 28.997 1.061 7.492-.197 15.121-.981 22.117-3.835 5.007-2.17 9.548-5.959 11.673-11.085 2.386-5.646 2.566-11.963 1.807-17.969-.527-3.82-1.501-7.678-3.57-10.973-2.247-2.734-6.282-3.631-9.565-2.451.344-3.008-.911-6.258-3.515-7.918-3.322-2.284-8.283-1.95-11.095 1.011-1.571 1.432-4.262 1.923-5.953.429-1.029-.895-1.293-2.403-.894-3.67.442-2.299 1.246-4.743.343-7.04-1.409-4.148-6.364-6.837-10.572-5.374-2.601.698-4.156 3.322-6.788 3.933-2.489.507-5.014-.8-6.656-2.608-1.157-1.497-.899-3.494-1.034-5.264-.058-2.472-.364-5.127-2.014-7.092-1.677-2.121-4.401-3.383-7.107-3.246"/>
  <g clip-path="url(#clipPath)">
    <use x="-81" y="-32" href="#halftone" transform="scale(3)rotate(20)"/>
  </g>
  <use href="#outline" />
</svg>
