<svg xmlns="http://www.w3.org/2000/svg" fill="none" viewBox="0 0 1132 256">
  <path fill="#4d2e08" d="M298.82.017c-20.274.43-39.413 12.836-49.045 30.528-5.594.435-11.108 2.136-16.714 1.72-15.797-3.62-33.011-.037-46.471 8.95-6.171-1.422-12.488-2.18-18.815-2.394-9.184-.098-18.138 1.852-26.511 5.32-7.765-3.514-16.307-5.324-24.838-5.13-8.167.042-16.354 1.499-23.942 4.553-14.589-1.623-29.813 1.839-41.959 10.17C23.18 57.685.024 82.846 0 110.759c0 14.742 8.41 27.523 15.99 39.527 11.029 19.886 18.055 42.474 34.059 59.222 20.76 19.639 55.623 21.228 78.383 4.125 7.513-2.766 15.596-4.398 22.199-9.182a57 57 0 0 0 4.4-3.054c18.036 3.167 37.053-.219 53.168-8.85 4.578-1.185 9.398-1.31 13.862-3.034q.957-.3 1.906-.63c12.788 2.408 26.241 1.034 37.967-4.848 4.344-2.767 9.566-.734 14.336-1.57 7.93-.641 15.744-3.001 22.82-6.746 20.919 6.902 44.889 2.378 62.668-10.48a48 48 0 0 0 5.521 2.363c22.076 8.993 47.945 7.784 69.403-2.439 1.523.46 3.059.874 4.607 1.231 11.427 2.736 23.766 2.914 35.492.378 5.045 2.103 10.342 3.569 15.721 4.293 5.634.873 11.408.525 17.008-.061 11.336 2.941 23.501 2.722 34.693-.754 8.417 1.879 17.304 1.704 25.742-.313 15.457 6.701 32.753 9.54 49.426 6.541 7.682-1.284 15.297-3.703 22.344-7.21 10.521 7.626 23.024 12.674 35.687 15.19 10.63 2.301 21.915 2.521 32.676.415 16.176 7.824 34.979 10.433 52.572 6.805 14.929 8.174 32.447 11.72 49.36 9.598a83 83 0 0 0 1.994-.234c6.412 3.065 13.32 5.057 20.375 5.721 4.119.675 8.387-.091 12.453.283 7.914 4.192 16.842 6.389 25.822 6.623 4.755 2.33 9.751 4.124 15.096 5.056 6.621 1.303 13.367 1.204 19.896-.071 14.554 8.29 31.437 12.793 48.122 12.104 17.032 9.573 37.412 13.138 56.712 10.091 8.04 7.263 17.98 12.353 28.84 13.954 24.61 4.631 52.07-9.007 61.48-32.578 3.22-7.524 4.51-15.732 4.89-23.864 14.26-15.083 23.59-35.331 23.43-56.286.16-17.534-7.63-34.807-20.68-46.474-12.55-11.692-29.4-17.994-46.39-19.188-2.7-.2-5.41-.362-8.12-.388-13.67 0-26.95 4.504-38.23 12.05-9.51-1.697-19.296-2.31-28.831-2.954q-.775-.062-1.551-.117c-7.412-5.205-15.612-9.291-24.24-11.993-5.869-11.586-15.552-21.21-27.248-26.935-9.152-4.867-19.489-7.44-29.847-7.54-7.636 0-15.072 1.83-21.887 5.03-10.412-8.887-23.708-14.426-37.428-14.909-17.24-.93-33.872 7.402-44.943 20.394a115 115 0 0 0-16.285-1.84c-4.224-.099-8.254.73-12.071 2.183q-.226-.109-.453-.212c-16.547-7.652-34.871-10.586-52.967-11.251h-.574c-.342-.144-.68-.291-1.025-.43-9.123-3.997-18.824-7.267-28.893-7.26-13.295-.12-27 2.924-38.701 9.396a66 66 0 0 0-2.34-1.81c-15.142-12.305-34.342-19.48-53.842-20.136-6.603-.05-13.073 1.043-19.256 3.059-10.836-6.785-23.376-10.806-36.232-10.884-7.514.525-14.994 2.4-22.527.781-17.484-.994-34.954 5.443-48.356 16.625-6.805-1.428-13.746-2.222-20.595-2.476a59 59 0 0 0-3.278.287c-4.967-3.024-10.426-5.231-16.222-6.376-5.968-1.594-12.149-2.316-18.321-2.358-15.647 0-31.589 4.12-45.064 12.192-6.645-5.76-14.586-9.976-23.239-11.885-6.763-5.454-13.963-10.631-22.376-13.19C312.607 1.173 305.712.016 298.82 0z"/>
</svg>
