<svg xmlns="http://www.w3.org/2000/svg" fill="none" viewBox="0 0 1242 451">
  <path fill="#4d2e08" d="M911.044.028a28 28 0 0 0-2.503 0c-19.897.287-38.723 9.83-52.058 24.375-3.082-.325-6.173-.55-9.267-.658-6.52.636-12.894 2.07-19.024 4.187-16.336-6.17-34.086-8.708-51.489-8.461-3.348.477-6.535 1.538-9.678 2.747-8.864-3.33-18.194-5.444-27.59-6.48-4.169-.41-8.359-.508-12.546-.409-17.115.831-34.015 6.766-48.074 16.624-17.165-9.009-36.667-13.53-56.046-12.938-12.593.43-24.814 3.941-35.844 9.787-9.489-2.901-19.42-4.354-29.357-4.175-14.18.43-26.925 7.702-40.821 9.656-18.379 3.882-35.135 14.205-47.555 28.286-12.862.88-25.696 3.89-37.24 9.49a66 66 0 0 0-7.588-.156c-22.755.76-44.891 10-62.377 24.406a100 100 0 0 0-9.94 9.372c-8.43-2.357-17.27-3.18-26.034-2.154-8.013-2.152-16.167-4.46-24.471-4.48-2.493-.12-4.989-.12-7.484-.12-33.034 1.463-62.457 28.351-68.329 60.604a91.5 91.5 0 0 0-9.982 6.109c-19.278 3.372-36.846 14.852-48.436 30.579-16.092 3.664-31.3 11.39-43.48 22.434-18.264 1.789-36.07 9.287-49.47 21.92-16.215 5.42-30.665 16.164-40.256 30.349-28.338 18.852-41.782 57.867-29.613 89.905 6.662 16.605 21.143 28.313 35.854 37.625 20.676 15.701 38.3 35.942 62.228 46.973 33.459 13.898 75.872.541 94.999-30.313 4.812-6.017 11.922-9.777 16.282-16.223a73.5 73.5 0 0 0 5.542-7.665c19.459-5.839 37.123-17.714 49.55-33.819a76.6 76.6 0 0 0 11.781-8.259c10.048-2.597 19.57-7.144 27.78-13.643 4.661-3.21 8.385-7.617 12.558-11.309 11.021-3.891 20.993-10.575 29.069-19.064 23.267-2.77 45.067-15.671 59.412-34.151 24.715 1.181 49.62-7.076 69.275-22.053 18.886.072 37.842-5.269 53.944-15.148 8.546-.287 17.031-1.966 25.026-5.208 13.265-.359 26.497-3.84 38.042-10.426 7.994-.523 15.889-2.459 23.294-5.587.16.038.319.057.479.091 25.46 4.886 52.892-.385 74.747-14.298 12.409 5.376 25.935 8.354 39.351 9.08 11.206.727 22.668-.408 33.571-3.43 17.72 5.647 37.067 6.291 55.143 1.943 17.238 7.226 36.546 9.679 55.03 6.951 6.599 2.626 13.534 4.374 20.592 5.087 4.805.716 9.813-.181 14.524.716 8.034 3.682 16.752 5.8 25.587 6.413a73 73 0 0 0 5.391 2.313c10.35 4.169 21.542 5.495 32.523 4.378 8.473 4.881 17.549 8.71 26.934 11.324a101.5 101.5 0 0 0 23.03 3.617c17.37 10.664 37.9 16.221 58.27 15.894 7.92 7.64 17.46 13.549 28.09 16.834 29.29 10.293 65.09-.438 82.62-26.4 6.63-9.268 10.85-20.16 12.72-31.375 21.17-19.135 35.09-47.337 33.67-76.211-1.6-31.954-24.14-61.017-53.7-72.498-14.27-5.846-29.81-8.165-45.17-8.023-11.22.625-22.14 3.62-32.2 8.47-9.68-2.3-19.68-3.408-29.54-3.658-8.9-7.132-18.92-12.9-29.58-16.88-3.06-5.591-6.83-10.796-11.25-15.417-10.23-10.633-23.41-18.402-37.56-22.557a84.9 84.9 0 0 0-24.957-3.29c-7.24.22-14.309 1.688-20.995 4.18C943.365 6.112 927.349.329 911.044.029"/>
</svg>
