<svg xmlns="http://www.w3.org/2000/svg" fill="none" viewBox="0 0 526 498">
  <defs>
    <linearGradient id="a" x1="429.979" x2="446.7" y1="389.528" y2="390.637" gradientUnits="userSpaceOnUse">
      <stop stop-color="#133247"/>
      <stop offset="1" stop-color="#374955"/>
    </linearGradient>
    <linearGradient id="b" x1="451.664" x2="330.564" y1="427.839" y2="137.843" gradientUnits="userSpaceOnUse">
      <stop stop-color="#133247"/>
      <stop offset="1" stop-color="#374955"/>
    </linearGradient>
    <linearGradient id="c" x1="263.203" x2="265.424" y1="42.7" y2="27.064" gradientUnits="userSpaceOnUse">
      <stop stop-color="#133247"/>
      <stop offset="1" stop-color="#374955"/>
    </linearGradient>
    <linearGradient id="e" x1="406.663" x2="420.495" y1="83.207" y2="77.514" gradientUnits="userSpaceOnUse">
      <stop stop-color="#133247"/>
      <stop offset="1" stop-color="#374955"/>
    </linearGradient>
    <linearGradient id="f" x1="362.745" x2="177.445" y1="558.52" y2="80.516" gradientUnits="userSpaceOnUse">
      <stop stop-color="#324f9d"/>
      <stop offset="1" stop-color="#39aee4"/>
    </linearGradient>
    <linearGradient id="g" x1="104.431" x2="183.123" y1="429.513" y2="478.41" gradientUnits="userSpaceOnUse">
      <stop stop-color="#133247"/>
      <stop offset="1" stop-color="#374955"/>
    </linearGradient>
    <linearGradient id="h" x1="155.185" x2="101.114" y1="40.611" y2="84.208" gradientUnits="userSpaceOnUse">
      <stop stop-color="#133247"/>
      <stop offset="1" stop-color="#374955"/>
    </linearGradient>
    <linearGradient id="i" x1="82.405" x2="122.925" y1="99.225" y2="141.014" gradientUnits="userSpaceOnUse">
      <stop stop-color="#133247"/>
      <stop offset="1" stop-color="#374955"/>
    </linearGradient>
    <linearGradient id="j" x1="27.869" x2="28.436" y1="210.401" y2="326.072" gradientUnits="userSpaceOnUse">
      <stop stop-color="#133247"/>
      <stop offset="1" stop-color="#374955"/>
    </linearGradient>
    <linearGradient id="k" x1="31.606" x2="107.996" y1="315.557" y2="328.298" gradientUnits="userSpaceOnUse">
      <stop stop-color="#133247"/>
      <stop offset="1" stop-color="#374955"/>
    </linearGradient>
    <linearGradient id="l" x1="129.974" x2="100.819" y1="388.986" y2="422.922" gradientUnits="userSpaceOnUse">
      <stop stop-color="#133247"/>
      <stop offset="1" stop-color="#374955"/>
    </linearGradient>
    <linearGradient id="m" x1="309.422" x2="381.33" y1="474.907" y2="455.735" gradientUnits="userSpaceOnUse">
      <stop stop-color="#133247"/>
      <stop offset="1" stop-color="#374955"/>
    </linearGradient>
    <linearGradient id="n" x1="287.185" x2="311.661" y1="451.065" y2="481.488" gradientUnits="userSpaceOnUse">
      <stop stop-color="#133247"/>
      <stop offset="1" stop-color="#374955"/>
    </linearGradient>
    <linearGradient id="o" x1="344.92" x2="418.235" y1="122.821" y2="98.772" gradientUnits="userSpaceOnUse">
      <stop stop-color="#dfc385"/>
      <stop offset="1" stop-color="#eee8a9"/>
    </linearGradient>
    <linearGradient id="p" x1="235.204" x2="338.646" y1="314.746" y2="206.977" gradientUnits="userSpaceOnUse">
      <stop stop-color="#bedbd4"/>
      <stop offset="1" stop-color="#e6f4f1"/>
    </linearGradient>
    <linearGradient id="q" x1="156.153" x2="303.297" y1="301.805" y2="188.691" gradientUnits="userSpaceOnUse">
      <stop stop-color="#bedbd4"/>
      <stop offset="1" stop-color="#bedbd4" stop-opacity="0"/>
    </linearGradient>
    <linearGradient id="r" x1="389.933" x2="394.12" y1="106.235" y2="137.42" gradientUnits="userSpaceOnUse">
      <stop stop-color="#fbfaef"/>
      <stop offset="1" stop-color="#fbfaef" stop-opacity="0"/>
    </linearGradient>
    <linearGradient id="s" x1="318.811" x2="174.499" y1="363.75" y2="189.294" gradientUnits="userSpaceOnUse">
      <stop stop-color="#738d9a"/>
      <stop offset="1" stop-color="#738d9a" stop-opacity="0"/>
    </linearGradient>
    <linearGradient id="t" x1="187.121" x2="299.891" y1="400.008" y2="271.253" gradientUnits="userSpaceOnUse">
      <stop stop-color="#a141c5"/>
      <stop offset="1" stop-color="#eccff7"/>
    </linearGradient>
    <linearGradient id="u" x1="391.658" x2="352.704" y1="218.496" y2="229.278" gradientUnits="userSpaceOnUse">
      <stop stop-color="#738d9a"/>
      <stop offset="1" stop-color="#738d9a" stop-opacity="0"/>
    </linearGradient>
    <linearGradient id="v" x1="224.997" x2="258.834" y1="346.171" y2="302.652" gradientUnits="userSpaceOnUse">
      <stop stop-color="#be80d6"/>
      <stop offset="1" stop-color="#be80d6" stop-opacity="0"/>
    </linearGradient>
    <linearGradient id="w" x1="224.623" x2="222.102" y1="239.926" y2="117.697" gradientUnits="userSpaceOnUse">
      <stop stop-color="#ddc082"/>
      <stop offset="1" stop-color="#eee8a9"/>
    </linearGradient>
    <linearGradient id="x" x1="190.535" x2="255.627" y1="114.755" y2="167.603" gradientUnits="userSpaceOnUse">
      <stop stop-color="#fbfaef"/>
      <stop offset="1" stop-color="#fbfaef" stop-opacity="0"/>
    </linearGradient>
    <linearGradient id="y" x1="403.773" x2="398.604" y1="203.48" y2="229.013" gradientUnits="userSpaceOnUse">
      <stop stop-color="#fbfaef"/>
      <stop offset="1" stop-color="#fbfaef" stop-opacity="0"/>
    </linearGradient>
    <linearGradient id="z" x1="340.613" x2="397.544" y1="358.446" y2="337.066" gradientUnits="userSpaceOnUse">
      <stop stop-color="#bedbd4"/>
      <stop offset="1" stop-color="#e6f4f1"/>
    </linearGradient>
    <linearGradient id="A" x1="365.358" x2="373.664" y1="328.945" y2="361.376" gradientUnits="userSpaceOnUse">
      <stop stop-color="#500"/>
      <stop offset="1" stop-color="#faa"/>
    </linearGradient>
  </defs>
  <path fill="#f4f2e5" d="m242.125 7.17-4.66 30.173c-8.921 2.114-17.759 4.423-26.637 6.707q-17.268-12.509-34.537-25.016c-11.532.347-22.198 4.877-33.21 7.846-7.36 2.86-12.952 8.526-19.289 13.27-17.465 13.314-34.788 26.82-52.198 40.208L46.35 99.838c10.993 12.806 21.995 25.604 32.983 38.414a220 220 0 0 0-22.8 46.18c-8.893 1.599-17.848 2.078-26.334 5.452-8.15 4.532-16.734 8.337-24.579 13.218-5.068 4.531-6.257 11.895-5.331 18.342L2.31 340.559l60.969 2.547c8.644 19.064 20.213 36.783 34.143 52.404-6.351 9.325-12.276 18.955-19.217 27.876-10.032 12.891 7.419 22.917 14.307 26.894 23.057 13.742 46.187 27.36 69.301 41.007l34.869-8.935q10.257-8.144 20.512-16.29a234.5 234.5 0 0 0 54.811 5.267c6.785 8.487 13.583 16.964 20.373 25.447 7.307 2.679 15.293.557 22.148-2.453 21.078-7.926 42.338-15.376 63.16-23.9l18.14-11.725q2.791-14.604 5.579-29.209c9.388-5.711 18.295-12.186 26.776-19.166q5.395 1.123 10.789 2.248l21.919-10.05 49.212-68.989-14.325-21.632a228 228 0 0 0 7.868-32.433q11.127-5.884 22.255-11.766l-7.84-81.423q-11.741-5.032-23.486-10.063a224 224 0 0 0-13.722-31.461c4.401-7.323 8.795-14.651 13.193-21.976-17.948-19.879-35.509-40.092-54.015-59.463-4.166-2.745-9.18-2.711-13.943-2.173-6.726.902-13.347 1.272-19.797 2.77-1.171.135-2.429 1.1-3.435.093-7.887-4.596-15.935-8.739-24.266-12.43-1.39-11.326-2.769-22.654-4.156-33.98L279.641 0z"/>
  <path fill="url(#a)" d="m449.882 389.239-12.877 5.93-18.53-3.857 13.217-6.584z"/>
  <path fill="url(#b)" d="m256.832 21.325 81.183 13.39 4.548 31.804a207.8 207.8 0 0 1 43.06 21.421l25.939-8.372 43.947 47.082-11.649 20.372q.452.61.902 1.226a197 197 0 0 1 19.819 42.953l21.804 8.823 7.103 61.14-19.932 11.082a197 197 0 0 1-10.226 46.445l13.05 18.849-39.375 57.628-18.53-3.857.007-.347a208 208 0 0 1-42.618 34.148q-1.251.647-2.51 1.277l-5.137 30.294-66.794 24.722-21.671-27.044a212.5 212.5 0 0 1-67.398-6.522l-23.24 19.263-78.733-48.708-16.837 13.207 25.106-37.872a200.3 200.3 0 0 1-27.408-33.599 197 197 0 0 1-16.792-33.253l-55.704-2.304-1.854-108.747 50.102-8.905.039-.004c6.408-25.108 17.726-48.816 33.337-69.826l-29.894-34.8 77.043-59.464 38.882 26.953-.144.14a213 213 0 0 1 59.467-15.62 207 207 0 0 1 6.05-.255zm23.447 88.249a140.6 140.6 0 0 0-61.231 20.309l-.156.097c-66.233 40.881-86.852 127.864-46.058 194.305 40.795 66.439 127.559 87.191 193.819 46.353s86.938-127.806 46.187-194.274c-27.992-45.657-79.332-71.524-132.561-66.79"/>
  <path fill="url(#c)" d="m279.545 16.934-22.713 4.391-5.066 32.725 22.136-4.938z"/>
  <path fill="url(#e)" d="m431.016 77.437-19.454 2.13-14.861 4.796 8.873 3.923-.328-3.1z"/>
  <path fill="url(#f)" d="m279.545 16.934 79.811 14.812 3.859 31.461a205 205 0 0 1 42.051 21.977l25.749-7.746 42.419 47.31-11.891 19.863q.434.612.864 1.226a194.2 194.2 0 0 1 18.701 42.759l21.332 9.136 5.801 60.444-19.88 10.537a194.4 194.4 0 0 1-11.004 45.61l12.501 18.852-39.977 56.064-18.189-4.512a205 205 0 0 1-42.712 32.842q-1.245.611-2.5 1.208l-5.664 29.782-66.373 23.065-20.842-27.103a209.7 209.7 0 0 1-66.35-7.764l-38.136 30.347-78.735-48.709 25.514-36.859a197.6 197.6 0 0 1-26.371-33.683 194.5 194.5 0 0 1-15.909-33.13l-54.898-3.373.319-107.302 49.594-7.794.039-.003c6.815-24.64 18.447-47.799 34.261-68.215L94.128 93.12l77.167-57.133 37.821 27.353-.145.136a210.1 210.1 0 0 1 58.964-14.234q2.986-.111 5.973-.134zm21.383 87.509a138.7 138.7 0 0 0-60.795 18.824l-.156.093c-66.139 39.017-88.193 124.407-49.267 190.747s124.098 88.52 190.261 49.547 88.275-124.348 49.392-190.714c-26.709-45.588-76.837-72.116-129.435-68.497"/>
  <path fill="url(#g)" d="m93.542 431.602 16.837-13.208 78.733 48.709-24.783 6.354z"/>
  <path fill="#92dafb" d="m171.288 35.994 37.82 27.355-45.149-21.93zm179.305-5.875 8.764 1.625 3.858 31.462a205 205 0 0 1 38.936 19.92c-13.6-9.264-35.388-15.3-44.113-18.424zm80.422 47.319 42.419 47.309-11.891 19.862q.434.612.864 1.227a194.2 194.2 0 0 1 18.701 42.759l21.332 9.135 5.801 60.445-8.476-58.511-24.281-7.29a202 202 0 0 0-19.455-44.478q-.447-.64-.898-1.276l12.37-20.663zM283.874 105.18c1.39-.129 2.78-.258 4.175-.348 3.976-.275 7.937-.36 11.878-.308a138.7 138.7 0 0 0-59.794 18.739l-.156.093c-66.138 39.016-88.193 124.407-49.267 190.747s124.099 88.521 190.262 49.548a139 139 0 0 0 31.163-25.023c-10.904 14.041-24.587 26.29-40.82 35.852-68.827 40.542-157.429 17.468-197.922-51.543-40.494-69.012-17.551-157.839 51.25-198.426l.161-.097a144.3 144.3 0 0 1 59.07-19.234m-216.418 94.4c-.07.258-.152.511-.222.767l-.04.004-28.17 4.427.005-.722zm420.314 73.626a194.4 194.4 0 0 1-10.414 41.117l12.503 18.85-2.858 4.008-11.817-21.364c5.727-15.332 10.708-26.423 12.586-42.611M386.481 418.777l-5.665 29.78-7.444 2.587z"/>
  <path fill="url(#h)" d="m171.288 35.993-23.777 6.844L70.467 102.3l23.653-9.175z"/>
  <path fill="url(#i)" d="m94.12 93.125-23.653 9.176 29.896 34.8 22.559-9.06z"/>
  <path fill="url(#j)" d="m39.034 204.047-22.143 11.779 1.854 108.748 19.97-13.225z"/>
  <path fill="url(#k)" d="m18.746 324.575 55.703 2.303 19.165-12.156-54.898-3.372z"/>
  <path fill="url(#l)" d="m135.894 381.535-17.243 12.194-25.109 37.872 16.839-13.207z"/>
  <path fill="url(#m)" d="m380.816 448.559-12.599 8.125-66.795 24.722 13.022-9.782z"/>
  <path fill="url(#n)" d="m314.444 471.624-13.022 9.782-21.671-27.044 13.851-9.841z"/>
  <path fill="url(#o)" d="M392.947 83.485c.513.27.974.633 1.351 1.078l.004.002a4.6 4.6 0 0 1 1.06 2.457c3.912 28.167 2.713 37.229 1.456 55.653-.478 6.958-6.297 17.169-13.919 19.871-7.334 2.598-16.886 2.674-25.435-1.223 0 0-.043-.035-.05-.035-.051-.034-.095-.046-.14-.065-8.549-3.897-14.758-11.157-17.607-18.397-2.961-7.525.929-18.615 5.868-23.54 13.082-13.034 19.136-19.883 42.963-35.407.75-.518 1.637-.8 2.549-.81l.005.002a4.5 4.5 0 0 1 1.698.32c.043.035.081.04.122.06.039-.004.049.034.069.032z"/>
  <path fill="#dec283" d="M390.345 83.166q.34-.032.68-.06a4.5 4.5 0 0 1 1.701.32c.043.035.078.04.119.06.039-.004.051.034.07.033.513.27.977.631 1.354 1.076.349.412.617.88.802 1.381-10.779 29.866-11.584 40.134-14.493 60.647-.629 4.449.423 10.48 2.89 15.717-.201.081-.401.162-.603.232-7.333 2.599-16.885 2.675-25.434-1.222 0 0-.043-.035-.051-.034-.05-.035-.098-.046-.143-.066-8.549-3.897-14.759-11.157-17.608-18.397-2.961-7.525.93-18.615 5.868-23.54 13.082-13.034 19.135-19.882 42.961-35.405a4.56 4.56 0 0 1 1.872-.754z"/>
  <path fill="url(#p)" d="M287.302 118.699a130.1 130.1 0 0 1 56.297.538c18.467 4.286 35.712 12.567 50.491 24.244 5.538 4.717 27.026 24.597 33.089 53.869 6.979 33.69 5.862 37.874 5.862 37.874l8.456-2.381c1.48 20.838-2.298 41.746-10.995 60.86s-22.044 35.839-38.849 48.681a129 129 0 0 1-7.532 5.32l2.467 6.452s-.667-.415-1.983-.889c-.039.004 0 0-.047-.035l-.058.006a21 21 0 0 0-2.409-.684c-.039.003-.04.003-.067-.034-.039.004-.058.006-.089-.031a27 27 0 0 0-3.42-.503l-.047.005-.043.004q-.62-.05-1.288-.077l-.116.062c-1-.037-1.968-.097-3.127-.032a30 30 0 0 0-2.668.248c-.932.126-1.908.268-2.926.464a48 48 0 0 0-3.18.725 57 57 0 0 0-3.436 1.015 67 67 0 0 0-3.695 1.342 76 76 0 0 0-3.949 1.706 202 202 0 0 1-7.702 3.396 172 172 0 0 1-6.776 2.657 146 146 0 0 1-5.819 2.003 121 121 0 0 1-4.83 1.441 80 80 0 0 1-6.572 1.527c-1.483.279-2.246.358-2.246.358-20.771 1.194-41.492-2.604-60.381-11.068s-35.378-21.34-48.051-37.521c-20.738-26.487-29.905-60.08-25.484-93.393s22.066-63.617 49.055-84.25l.132-.098a130.2 130.2 0 0 1 51.932-23.804z"/>
  <path fill="url(#q)" d="M397.546 337.067a130 130 0 0 1-5.893 5.316 130 130 0 0 1-7.533 5.32l2.467 6.452s-.667-.415-1.983-.889c-.039.004 0 0-.046-.035l-.058.006c-.653-.23-1.45-.471-2.41-.684-.039.003-.04.003-.067-.033-.038.003-.058.005-.089-.031a27 27 0 0 0-3.42-.503l-.047.004-.043.004a35 35 0 0 0-1.288-.077l-.116.062c-.999-.037-1.968-.096-3.127-.032a31 31 0 0 0-2.668.248c-.931.126-1.908.268-2.925.464a48 48 0 0 0-3.18.725 58 58 0 0 0-3.437 1.015 67 67 0 0 0-3.695 1.342 76 76 0 0 0-3.949 1.707 202 202 0 0 1-7.702 3.395 172 172 0 0 1-6.776 2.657 146 146 0 0 1-5.819 2.003 121 121 0 0 1-4.83 1.441 80 80 0 0 1-6.572 1.527c-1.483.279-2.245.358-2.245.358a130 130 0 0 1-40.97-4.178 129 129 0 0 1-19.411-6.891 128 128 0 0 1-18.019-9.88 127 127 0 0 1-16.158-12.616 126.2 126.2 0 0 1-18.101-20.747 124 124 0 0 1-3.889-5.949 125 125 0 0 1-9.555-19.015 124 124 0 0 1-4.506-13.45 123 123 0 0 1-2.949-13.873 127 127 0 0 1-.879-7.042 131 131 0 0 1-.472-7.081 125 125 0 0 1 .258-14.193q.267-3.543.734-7.067a125 125 0 0 1 2.668-13.967 125.4 125.4 0 0 1 6.921-20.196 127 127 0 0 1 10.245-18.789 127 127 0 0 1 8.538-11.484 128 128 0 0 1 9.783-10.475 129 129 0 0 1 10.901-9.339l.133-.098a129.6 129.6 0 0 1 16.054-10.46 130 130 0 0 1 17.441-7.995 130.6 130.6 0 0 1 18.437-5.349 130.5 130.5 0 0 1 18.742-2.558 130 130 0 0 1 18.903.181 130 130 0 0 1 18.652 2.915 129 129 0 0 1 17.996 5.59 128 128 0 0 1 16.955 8.14 127 127 0 0 1 15.54 10.514 83 83 0 0 1 2.763 2.469c1.13 1.052 2.447 2.33 3.891 3.822a114 114 0 0 1 4.65 5.109 113 113 0 0 1 5.043 6.327c.234.316.459.698.691 1.019-6.444-3.792-14.746-7.518-25.646-10.932-67.234-21.056-147.552 34.932-138.76 95.586 7.889 54.423 40.266 57.012 58.443 52.961s21.242-18.288 20.623-23.584c-.985-12.344-.456-19.062 6.839-24.692l.039-.004c8.474-6.522 20.638-4.971 27.171 3.466a19.26 19.26 0 0 1 1.223 21.81c1.501 2.083 27.001 37.478 34.31 47.175 1.914 2.537 2.463 7.305 2.196 13.068z" style="mix-blend-mode:multiply"/>
  <path fill="url(#r)" d="M395.115 85.97c.127.346.22.71.262 1.08 3.912 28.167 2.712 37.23 1.454 55.655-.478 6.958-6.296 17.167-13.918 19.869-3.307 1.172-7.064 1.828-10.976 1.841 6.986-4.27 12.67-12.379 14.171-18.795 4.746-20.322 7.876-31.128 9.007-59.65"/>
  <path fill="url(#s)" d="M353.748 357.587a202 202 0 0 1-7.406 3.262 173 173 0 0 1-6.776 2.657 146 146 0 0 1-5.819 2.003 120 120 0 0 1-4.83 1.44 80 80 0 0 1-6.572 1.527c-1.483.279-2.245.358-2.245.358-20.771 1.195-41.492-2.604-60.381-11.068-18.888-8.464-35.379-21.339-48.052-37.52-20.737-26.487-29.903-60.08-25.483-93.393s22.065-63.618 49.055-84.25l.129-.098a130 130 0 0 1 4.267-3.011q-.43.498-.857 1-1.076 1.29-2.118 2.607a135 135 0 0 0-4.038 5.359 137 137 0 0 0-3.765 5.551 137 137 0 0 0-5.109 8.652 137 137 0 0 0-3.039 5.965 135 135 0 0 0-6.25 15.49 138 138 0 0 0-1.944 6.388 133 133 0 0 0-4.227 22.922 132 132 0 0 0-.56 9.974q-.031 1.663-.021 3.328a132 132 0 0 0 .448 9.972q.134 1.658.308 3.313a131 131 0 0 0 2.107 13.133 133 133 0 0 0 4.479 16.007 133 133 0 0 0 6.464 15.322 133 133 0 0 0 4.792 8.764 133 133 0 0 0 9.423 13.736 133 133 0 0 0 13.422 14.712 133 133 0 0 0 15.497 12.575 134.4 134.4 0 0 0 17.233 10.157 136 136 0 0 0 9.147 4.1 136 136 0 0 0 9.439 3.414 136 136 0 0 0 9.672 2.713 136.8 136.8 0 0 0 29.896 3.79 138 138 0 0 0 10.071-.207s.203-.022.598-.095c.399-.037.987-.151 1.769-.298l1.269-.264z"/>
  <path fill="url(#t)" d="M235.478 250.748a68.4 68.4 0 0 1 68.304 25.11c21.589 27.981 18.228 68.07-7.65 92.14-33.494-4.198-63.792-21.529-84.465-47.754a125 125 0 0 1-20.402-38.22 68.4 68.4 0 0 1 16.514-18.451l.07-.053a68.4 68.4 0 0 1 27.629-12.772"/>
  <path fill="url(#u)" d="M393.611 193.875c1.883 13.072 10.636 21.24 10.636 21.24s6.935 1.922 10.724 2.951 10.347 5.656 10.347 5.656c2.12-1.62 3.801-2.111 6.419-1.999.648 4.442 1.154 8.878 1.237 10.537l-1.922 3.489-12.424-6.975s-14.247-5.07-19.568-12.129a15 15 0 0 1-1.121-1.742c-4.218-7.607-4.328-21.028-4.328-21.028m4.328 21.028 3.466 28.646s-51.405 12.98-40.339-5.637 36.873-23.009 36.873-23.009" opacity=".13" style="mix-blend-mode:multiply"/>
  <path fill="url(#v)" d="M212.33 260.344q.332 1.24.692 2.475a125 125 0 0 0 2.033 6.335q.548 1.572 1.137 3.128a133 133 0 0 0 2.509 6.163 131 131 0 0 0 2.818 6.031 135 135 0 0 0 3.121 5.883 129 129 0 0 0 3.415 5.719 131 131 0 0 0 5.655 8.246 132.6 132.6 0 0 0 15.446 17.364 133.6 133.6 0 0 0 23.919 17.971 135 135 0 0 0 17.958 8.86 135 135 0 0 0 9.438 3.415q3.577 1.111 7.212 2.024c-3.095 4.993-7.091 9.858-11.55 14.041-12.654-1.525-24.779-5.107-36.399-10.226a128 128 0 0 1-13.352-6.977c-.236-.139-.466-.29-.7-.431a128 128 0 0 1-11.729-8.064c-.389-.301-.771-.608-1.156-.912a127 127 0 0 1-10.446-9.232q-.46-.454-.915-.915a126 126 0 0 1-9.725-10.967c-.003-.039-.042-.039-.045-.062a125 125 0 0 1-3.164-4.229c-.004-.039-.044-.05-.059-.081-.068-.095-.131-.191-.199-.283q-1.5-2.109-2.913-4.278l-.147-.234a125 125 0 0 1-2.742-4.431c-.065-.107-.126-.219-.188-.327a126 126 0 0 1-2.523-4.515l-.138-.266a124 124 0 0 1-2.307-4.589l-.235-.501a125 125 0 0 1-2.045-4.567l-.166-.396a125 125 0 0 1-1.835-4.626c-.084-.228-.163-.456-.247-.684q-.758-2.07-1.44-4.165a68.4 68.4 0 0 1 16.507-18.439l.069-.058a69 69 0 0 1 4.479-3.173z"/>
  <path fill="url(#w)" d="M169.613 125.878a5.6 5.6 0 0 1 1.584-1.38 5.6 5.6 0 0 1 3.169-.731c34.508 1.482 45.073 4.893 66.813 10.421 8.208 2.091 19.137 11.274 20.699 20.971 1.502 9.33-.495 20.759-7.018 30.122.003.039-.035.043-.038.055-.038.055-.073.101-.108.155-6.523 9.362-16.554 15.194-25.827 17.015-9.638 1.893-22.037-5.177-26.843-12.153-12.713-18.478-19.572-27.208-32.913-59.068a5.6 5.6 0 0 1-.414-3.224l.004-.004a5.5 5.5 0 0 1 .753-1.959 1 1 0 0 0 .098-.131c-.004-.038.034-.054.043-.075z"/>
  <path fill="#dec283" d="M168.745 130.136c21.005 25.493 31.765 33.565 50.679 49.331 7.949 6.62 24.855 10.849 35.563 5.447.066-.045.138-.071.205-.109-.114.168-.223.335-.337.501.003.039-.036.042-.039.055-.038.054-.072.105-.111.156-6.524 9.362-16.552 15.191-25.825 17.013-9.638 1.893-22.037-5.178-26.842-12.154-12.713-18.477-19.573-27.206-32.914-59.067a5 5 0 0 1-.379-1.173"/>
  <path fill="url(#x)" d="M172.125 124.123a5.7 5.7 0 0 1 2.249-.312c34.507 1.482 45.072 4.892 66.812 10.42 8.209 2.091 19.136 11.275 20.698 20.972.864 5.368.568 11.431-1.08 17.395-3.63-10.268-12.821-19.887-20.843-23.497-23.385-10.509-36.396-17.098-67.836-24.978"/>
  <path fill="#172834" d="M323.871 241.131c-.469-2.435-13.949-17.652-25.347-10.193-11.399 7.458-7.439 14.603-5.826 15.551s6.072-2.239 14.304-2.38c8.232-.139 13.484 1.273 14.911 1.038 2.175-.367 2.384-1.979 1.958-4.016m83.502-24.915c-.88-1.587-1.854-15.334 6.355-15.14s9.684 5.787 9.413 6.925-3.603.905-7.2 3.816-5.225 5.641-5.942 6.023c-1.098.576-1.904-.284-2.626-1.624"/>
  <path fill="#e6f4f1" d="M338.282 251.876a15.547 15.547 0 1 0 .016-.013m88.038-25.233a11.703 11.703 0 0 0-2.096 16.418 11.707 11.707 0 0 0 20.87-5.672 11.7 11.7 0 0 0-10.117-13.098 11.7 11.7 0 0 0-8.645 2.343"/>
  <path fill="#e6f4f1" d="M358.682 240.433c-9.625 10.729-23.697 47.791.812 86.768 22.66 36.036 64.111 47.718 80.534 19.491 15.883-27.299 19.879-75.649-2.39-106.16-22.638-31.017-55.033-26.423-78.956-.099"/>
  <path fill="#172834" fill-opacity=".703" d="M342.394 258.535a8.1 8.1 0 0 1 3.126-1.762l.001.004a8.07 8.07 0 0 1 7.356 1.449q.485.39.905.849c.004.039.045.055.067.08 4.383 4.413 5.86 8.929 5.86 8.929 1.21 3.428-1.662 6.922-4.858 6.323 0 0-4.743-.259-10.138-3.354-.039.003-.066-.033-.099-.042a8 8 0 0 1-1.052-.656 8.06 8.06 0 0 1-3.299-6.732 8.04 8.04 0 0 1 .891-3.475c.355-.674.723-1.119 1.23-1.601z"/>
  <path fill="#e9e3a6" d="M403.614 210.568c.004-.001 25.865 22.86 13.578 43.695-1.849 3.479-5.589 4.744-9.175 3.71 0 0-16.327-3.224-15.94-18.614.301-11.958.544-18.305-.257-23.71-1.225-15.297 7.01-8.971 11.809-5.083zm-.483 9.463c-.035.042-.043.043-.065.061l.058.033z"/>
  <path fill="#dec283" d="M393.14 206.794c.113 1.181.325 2.531.653 4.073 1.678 5.905 2.328 13.012 3.73 26.379 1.482 14.14 14.347 17.483 18.883 18.226-2.004 2.555-5.259 3.406-8.395 2.502 0 0-16.326-3.225-15.939-18.616.301-11.957.544-18.306-.257-23.71-.395-4.93.194-7.612 1.333-8.856zm13.905 7.307.008.109-.07-.033c.035-.042.042-.05.063-.08z"/>
  <path fill="url(#y)" d="M394.55 205.973c2.579-.55 6.365 2.405 9.065 4.592.001 0 21.152 18.699 16.112 37.684 2.411-19.312-18.375-37.143-18.38-37.149-2.278-1.791-5.271-4.071-7.781-4.693.302-.216.632-.358.984-.434m6.43 15.26.01.105-.067-.036c.039-.004.047-.048.068-.07z"/>
  <path fill="url(#z)" d="m347.52 297.986 17.995 23.898 59.262 28.114-8.725 12.285s-11.606-2.23-20.707 2.358c-7.061 3.56-17.628 9.079-30.926 5.212a44 44 0 0 1-1.167-.364c-.093-.031-.181-.054-.27-.085-.039.003-.058-.034-.086-.032a37 37 0 0 1-1.132-.41c-.085-.032-.17-.059-.252-.095-.051-.034-.098-.042-.147-.061q-.508-.198-1.021-.416c-.11-.045-.216-.086-.326-.135-.115-.048-.23-.108-.345-.16a39 39 0 0 1-.863-.397c-.103-.049-.205-.091-.308-.14-.144-.069-.293-.149-.437-.222a56 56 0 0 1-.875-.445c-.074-.04-.148-.072-.222-.113-.199-.107-.403-.226-.6-.337-.261-.145-.52-.285-.783-.438l-.17-.095c-.282-.166-.567-.345-.85-.519-.212-.13-.424-.255-.637-.39-.043-.035-.058-.034-.088-.055a50 50 0 0 1-1.594-1.059s-1.678-1.367-4.393-2.041a12 12 0 0 0-3.037-.365s-.284-.182-.766-.554a23 23 0 0 1-.865-.705 30 30 0 0 1-2.402-2.31c-.455-.488-.93-1.03-1.416-1.624a35 35 0 0 1-1.479-1.946 36.3 36.3 0 0 1-3.587-6.339 39 39 0 0 1-1.232-3.146 42 42 0 0 1-1.029-3.511 45 45 0 0 1-.419-1.893 47 47 0 0 1-.606-4.072 44 44 0 0 1-.164-2.18c-.03-.744-.068-1.502-.077-2.277q-.015-1.162.026-2.375.041-1.212.136-2.473a61 61 0 0 1 .638-5.252q-.002-.004 0 0a60 60 0 0 1 2.043-6.598c3.057-8.11 7.75-14.455 13.925-16.229z"/>
  <path fill="url(#A)" d="M393.389 352.745s-8.024-9.462-12.41-9.055-18.064 8.823-29.917-5.217c0 0 10.451 26.42 22.898 23.052s19.429-8.78 19.429-8.78"/>
  <path fill="#e6f4f1" d="m396.412 263.26.049 4.619c16.9-.856 35.627 7.667 56.62 29.559-.6 18.395-5.472 36.225-13.054 49.256-7.34 12.616-19.678 17.253-33.105 15.314-.112-.029-.222-.03-.334-.047-.039.003-.039.003-.074-.033a14 14 0 0 1-1.065-.234 26 26 0 0 1-.739-.203 22 22 0 0 1-2.81-1.064 20 20 0 0 1-2.181-1.174 21 21 0 0 1-1.124-.752 21 21 0 0 1-1.676-1.362 14 14 0 0 1-.547-.52 17 17 0 0 1-1.061-1.147 22 22 0 0 1-.509-.628 21 21 0 0 1-.492-.667 16 16 0 0 1-.472-.706 16 16 0 0 1-.45-.747s-.128-.149-.356-.405a44 44 0 0 0-.83-.916c-.056-.057-.078-.087-.139-.152-.043-.035-.082-.082-.117-.122a58 58 0 0 0-1.332-1.381 55 55 0 0 0-1.79-1.706 38 38 0 0 0-.982-.861c-2.155-1.829-4.55-3.427-6.415-3.522a1.8 1.8 0 0 0-.454.003c-.819.076-1.961.434-3.355.868-.098.009-.203.062-.302.091l-.898.275c-.082.008-.152.054-.233.074-.086.008-.168.054-.253.074q-.623.186-1.291.371c-5.407 1.467-12.912 2.452-20.145-3.553l-3.421-3.423c-11.417-18.996-7.94-39.405-5.235-58.882 0 0 3.437 4.026 7.308 8.607 9.072-12.517 24.402-22.517 43.277-24.939z"/>
</svg>
