<svg xmlns="http://www.w3.org/2000/svg" fill="none" preserveAspectRatio="none" viewBox="0 0 617 536">
  <defs>
    <linearGradient id="a" x1="180.457" x2="480.185" y1="444.903" y2="26.955" gradientUnits="userSpaceOnUse">
      <stop stop-color="#7e5624"/>
      <stop offset="1" stop-color="#c79551"/>
    </linearGradient>
    <path id="outline" stroke-width="4" stroke="url(#a)" stroke-linejoin="round" vector-effect="non-scaling-stroke" d="M105.496 518.276s16.367-19.173 17.302-46.762c0 0-121.58-8.885-104.746-202.478s299.366-346.225 486.32-184.24c89.296 77.369 161.51 282.847 1.323 361.066-10.287 4.208-22.833 11.156-120.097-1.937S215.386 475.723 173.3 474.788c0 0-26.186 49.567-67.804 43.488Z" />
    <clipPath id="clipPath">
      <use href="#outline"/>
    </clipPath>
  </defs>
  <path fill="#f4f2e5" d="M317.504.003c-27.626.826-55.197 4.812-81.781 12.422C172.456 30.275 114.346 66.3 70.602 115.416c-27.421 30.936-48.973 67.458-60.53 107.269-5.485 18.995-8.565 38.661-9.375 58.41-1.73 30.185-.483 60.766 6.478 90.277 5.848 24.668 16.017 48.63 31.868 68.572 14.371 18.126 33.419 32.64 55.024 41.021a118 118 0 0 0 10.079 3.423c-2.399 9.195-7.09 17.622-12.634 25.276-4.287 6.857-2.315 16.725 4.144 21.539 3.932 3.127 9.092 4.22 14.026 4.076 14.666.52 29.33-4.001 41.49-12.14 12.678-8.344 23.022-19.808 31.536-32.283 18.273-1.796 35.808-7.571 53.397-12.483 25.226-7.216 50.598-14.428 76.659-17.7 16.919-2.223 34.023-3.125 51.102-2.158 8.661.485 17.37 1.656 26.024 2.651 26.306 3.153 52.667 6.552 79.201 6.746 8.089-.013 16.21-.221 24.228-1.364 10.656-1.73 20.822-5.831 30.08-11.323 24.55-13.513 46.521-32.15 62.538-55.248 17.352-24.923 27.354-54.616 30.097-84.776 3.113-32.959-1.498-66.314-10.961-97.925-11.965-39.715-31.328-77.203-56.889-109.874-12.876-16.367-27.606-31.297-43.992-44.162-24.853-19.685-52.872-35.408-82.703-46.172C394.97 7.51 367.032 1.936 338.881.512c-7.118-.392-14.249-.534-21.377-.51"/>
  <g clip-path="url(#clipPath)">
    <use href="#halftone" transform="scale(1.1)"/>
  </g>
  <use href="#outline" />
</svg>
