<svg xmlns="http://www.w3.org/2000/svg" fill="none" viewBox="0 0 803 328">
  <defs>
    <linearGradient id="a" x1="514.862" x2="655.552" y1="289.945" y2="61.34" gradientUnits="userSpaceOnUse">
      <stop stop-color="#7e5624"/>
      <stop offset="1" stop-color="#c79551"/>
    </linearGradient>
    <path id="outline" stroke-width="8" stroke="url(#a)" stroke-linejoin="round" d="M19.126 277.735s39.729 5.453 63.488-35.054c0 0-16.892-62.053-9.348-95.427 6.633-29.346 26.63-94.915 133.597-118.796 97.662-21.804 182.512-.307 293.908 24.621s224.978 22.236 264.628 76.648c31.472 43.188 41.287 188.515-133.986 177.609s-218.896-27.264-317.828-8.568-144.893 9.348-206.433-19.475c0 0-42.844 44.403-88.026-1.558Z" />
    <clipPath id="clipPath">
      <use href="#outline"/>
    </clipPath>
  </defs>
  <path fill="#f4f2e5" d="M286.468.005c-35.815.425-71.642 5.087-105.997 15.397-19.306 5.75-37.942 13.92-54.954 24.81-14.625 9.378-27.987 20.831-38.919 34.403-17.925 22.08-29.795 49.099-33.555 77.302-1.64 11.63-1.193 23.463-.166 35.121 1.346 13.934 3.72 27.765 6.535 41.492.663 3.338 1.552 6.647 2.127 9.99-.408 1.819-2.058 2.97-3.132 4.398-8.292 9.08-20.16 15.109-32.544 15.401-4.623.308-9.352-.312-13.739 1.515C4.412 262.961-.61 271.594.06 279.698c.25 3.538 1.798 7.215 4.012 10.141 2.955 4.02 7.052 6.965 10.825 10.156 11.184 9.055 24.698 15.607 38.963 17.412 14.585 1.873 29.646-1.07 42.89-7.471 4.349-2.103 8.659-4.676 12.663-7.498 1.744-.653 3.272.853 4.876 1.298 24.871 10.652 50.942 19.102 77.806 22.177 29.611 3.541 59.706 1.857 89.158-2.207 32.664-4.515 65.005-12.202 98.081-13.387 31.5-1.417 63.019.781 94.374 3.676 49.346 4.307 98.66 9.112 148.113 12.06 12.601.709 25.248 1.544 37.891 1.058 20.965-.716 42.071-4.058 61.832-11.363 21.958-8.107 42.146-22.031 56.35-40.825 15.657-20.749 23.902-46.376 24.935-72.181.929-20.263-1.915-40.675-9.018-59.667-3.075-8.081-6.712-16.025-11.681-23.205-9.742-14.144-23.444-25.091-38.52-33.118-18.589-9.883-38.896-16.076-59.299-20.944-29.626-6.937-59.716-11.242-89.758-15.912-20.478-3.158-40.945-6.41-61.318-10.197-17.006-3.139-33.923-6.746-50.771-10.644-46.51-10.33-93.102-20.912-140.501-26.093-18.409-1.913-36.956-3.053-55.495-2.959"/>
  <g clip-path="url(#clipPath)">
    <use x="-200" y="-20" href="#halftone" transform="scale(2)"/>
  </g>
  <use href="#outline" />
</svg>
